<svg width="52" height="52" viewBox="0 0 52 52" fill="none" xmlns="http://www.w3.org/2000/svg">
<g filter="url(#filter0_d_104_1093)">
<circle cx="25.9716" cy="21.9716" r="21.9716" fill="#FF0400"/>
<g clip-path="url(#clip0_104_1093)">
<path d="M25.5991 35.378C22.1423 35.378 18.827 34.0048 16.3827 31.5604C13.9383 29.1161 12.5651 25.8008 12.5651 22.344C12.5651 18.8872 13.9383 15.5719 16.3827 13.1276C18.827 10.6832 22.1423 9.31 25.5991 9.31C29.056 9.31 32.3712 10.6832 34.8156 13.1276C37.2599 15.5719 38.6331 18.8872 38.6331 22.344C38.6331 25.8008 37.2599 29.1161 34.8156 31.5604C32.3712 34.0048 29.056 35.378 25.5991 35.378ZM25.5991 37.24C29.5498 37.24 33.3387 35.6706 36.1322 32.8771C38.9257 30.0835 40.4951 26.2947 40.4951 22.344C40.4951 18.3933 38.9257 14.6045 36.1322 11.8109C33.3387 9.01739 29.5498 7.448 25.5991 7.448C21.6485 7.448 17.8596 9.01739 15.0661 11.8109C12.2725 14.6045 10.7031 18.3933 10.7031 22.344C10.7031 26.2947 12.2725 30.0835 15.0661 32.8771C17.8596 35.6706 21.6485 37.24 25.5991 37.24Z" fill="white"/>
<path d="M31.1293 16.7021L31.0921 16.7431L24.6253 24.9824L20.7282 21.0834C20.4634 20.8367 20.1133 20.7024 19.7515 20.7088C19.3897 20.7152 19.0445 20.8618 18.7887 21.1176C18.5328 21.3735 18.3862 21.7187 18.3799 22.0805C18.3735 22.4423 18.5078 22.7924 18.7544 23.0571L23.6813 27.9859C23.814 28.1183 23.9721 28.2227 24.146 28.2928C24.32 28.3629 24.5063 28.3972 24.6938 28.3937C24.8813 28.3903 25.0661 28.3491 25.2374 28.2726C25.4086 28.1961 25.5627 28.0859 25.6904 27.9486L33.1235 18.6572C33.3766 18.3916 33.515 18.037 33.5087 17.6701C33.5025 17.3033 33.3521 16.9536 33.0901 16.6967C32.8281 16.4399 32.4755 16.2964 32.1086 16.2974C31.7417 16.2984 31.3899 16.4438 31.1293 16.7021Z" fill="white"/>
</g>
</g>
<defs>
<filter id="filter0_d_104_1093" x="0" y="0" width="51.9431" height="51.9432" filterUnits="userSpaceOnUse" color-interpolation-filters="sRGB">
<feFlood flood-opacity="0" result="BackgroundImageFix"/>
<feColorMatrix in="SourceAlpha" type="matrix" values="0 0 0 0 0 0 0 0 0 0 0 0 0 0 0 0 0 0 127 0" result="hardAlpha"/>
<feOffset dy="4"/>
<feGaussianBlur stdDeviation="2"/>
<feComposite in2="hardAlpha" operator="out"/>
<feColorMatrix type="matrix" values="0 0 0 0 0 0 0 0 0 0 0 0 0 0 0 0 0 0 0.25 0"/>
<feBlend mode="normal" in2="BackgroundImageFix" result="effect1_dropShadow_104_1093"/>
<feBlend mode="normal" in="SourceGraphic" in2="effect1_dropShadow_104_1093" result="shape"/>
</filter>
<clipPath id="clip0_104_1093">
<rect width="29.792" height="29.792" fill="white" transform="translate(10.7031 7.448)"/>
</clipPath>
</defs>
</svg>
