<svg width="25.133301" height="25.133301" viewBox="0 0 25.1333 25.1333" fill="none" xmlns="http://www.w3.org/2000/svg" xmlns:xlink="http://www.w3.org/1999/xlink">
	<desc>
			Created with Pixso.
	</desc>
	<defs/>
	<path id="Vector" d="M2.09 25.13C2.09 25.13 0 25.13 0 23.03C0 20.94 2.09 14.66 12.56 14.66C23.03 14.66 25.13 20.94 25.13 23.03C25.13 25.13 23.03 25.13 23.03 25.13L2.09 25.13ZM12.56 12.56C14.23 12.56 15.83 11.9 17 10.72C18.18 9.54 18.85 7.94 18.85 6.28C18.85 4.61 18.18 3.01 17 1.84C15.83 0.66 14.23 0 12.56 0C10.9 0 9.3 0.66 8.12 1.84C6.94 3.01 6.28 4.61 6.28 6.28C6.28 7.94 6.94 9.54 8.12 10.72C9.3 11.9 10.9 12.56 12.56 12.56Z" fill="#D9D9D9" fill-opacity="1.000000" fill-rule="nonzero"/>
</svg>
