<svg width="34.000000" height="34.000000" viewBox="0 0 34 34" fill="none" xmlns="http://www.w3.org/2000/svg" xmlns:xlink="http://www.w3.org/1999/xlink">
	<desc>
			Created with Pixso.
	</desc>
	<defs/>
	<path id="Vector" d="M23.37 12.75C23.37 14.44 22.7 16.06 21.5 17.25C20.31 18.45 18.69 19.12 17 19.12C15.3 19.12 13.68 18.45 12.49 17.25C11.29 16.06 10.62 14.44 10.62 12.75C10.62 11.05 11.29 9.43 12.49 8.24C13.68 7.04 15.3 6.37 17 6.37C18.69 6.37 20.31 7.04 21.5 8.24C22.7 9.43 23.37 11.05 23.37 12.75Z" fill="#D9D9D9" fill-opacity="1.000000" fill-rule="nonzero"/>
	<path id="Vector" d="M0 17C0 12.49 1.79 8.16 4.97 4.97C8.16 1.79 12.49 0 17 0C21.5 0 25.83 1.79 29.02 4.97C32.2 8.16 34 12.49 34 17C34 21.5 32.2 25.83 29.02 29.02C25.83 32.2 21.5 34 17 34C12.49 34 8.16 32.2 4.97 29.02C1.79 25.83 0 21.5 0 17ZM17 2.12C14.19 2.12 11.45 2.91 9.08 4.4C6.71 5.89 4.8 8.02 3.59 10.55C2.38 13.07 1.9 15.89 2.22 18.67C2.53 21.46 3.63 24.09 5.38 26.28C6.88 23.85 10.21 21.25 17 21.25C23.78 21.25 27.1 23.85 28.61 26.28C30.36 24.09 31.46 21.46 31.77 18.67C32.09 15.89 31.61 13.07 30.4 10.55C29.19 8.02 27.28 5.89 24.91 4.4C22.54 2.91 19.8 2.12 17 2.12Z" fill="#D9D9D9" fill-opacity="1.000000" fill-rule="evenodd"/>
</svg>
