<svg width="52" height="52" viewBox="0 0 52 52" fill="none" xmlns="http://www.w3.org/2000/svg">
<g filter="url(#filter0_d_104_1147)">
<circle cx="25.9716" cy="21.9716" r="21.9716" fill="#FF0400"/>
<g clip-path="url(#clip0_104_1147)">
<path d="M30.1996 20.2468C30.2685 20.318 30.3231 20.4025 30.3604 20.4956C30.3977 20.5887 30.4169 20.6885 30.4169 20.7892C30.4169 20.89 30.3977 20.9898 30.3604 21.0828C30.3231 21.1759 30.2685 21.2604 30.1996 21.3316L25.7617 25.9279C25.693 25.9993 25.6114 26.0559 25.5215 26.0945C25.4317 26.1331 25.3354 26.153 25.2381 26.153C25.1408 26.153 25.0444 26.1331 24.9546 26.0945C24.8647 26.0559 24.7831 25.9993 24.7144 25.9279L22.4955 23.6298C22.4267 23.5585 22.3722 23.474 22.3349 23.3809C22.2977 23.2879 22.2786 23.1881 22.2786 23.0874C22.2786 22.9867 22.2977 22.8869 22.3349 22.7939C22.3722 22.7008 22.4267 22.6162 22.4955 22.545C22.6344 22.4012 22.8227 22.3204 23.0191 22.3204C23.1164 22.3204 23.2127 22.3402 23.3025 22.3787C23.3924 22.4173 23.474 22.4738 23.5428 22.545L25.2381 24.3024L29.1522 20.2468C29.2209 20.1755 29.3026 20.1189 29.3924 20.0803C29.4823 20.0417 29.5786 20.0218 29.6759 20.0218C29.7732 20.0218 29.8695 20.0417 29.9594 20.0803C30.0492 20.1189 30.1309 20.1755 30.1996 20.2468Z" fill="white"/>
<path d="M19.321 9.29834C19.5172 9.29834 19.7053 9.37905 19.844 9.52271C19.9828 9.66638 20.0607 9.86123 20.0607 10.0644V10.8305H31.8949V10.0644C31.8949 9.86123 31.9729 9.66638 32.1116 9.52271C32.2503 9.37905 32.4384 9.29834 32.6346 9.29834C32.8307 9.29834 33.0189 9.37905 33.1576 9.52271C33.2963 9.66638 33.3742 9.86123 33.3742 10.0644V10.8305H34.8535C35.6382 10.8305 36.3907 11.1533 36.9455 11.7279C37.5004 12.3026 37.8121 13.082 37.8121 13.8947V30.7479C37.8121 31.5606 37.5004 32.34 36.9455 32.9147C36.3907 33.4893 35.6382 33.8122 34.8535 33.8122H17.1021C16.3175 33.8122 15.5649 33.4893 15.0101 32.9147C14.4553 32.34 14.1436 31.5606 14.1436 30.7479V13.8947C14.1436 13.082 14.4553 12.3026 15.0101 11.7279C15.5649 11.1533 16.3175 10.8305 17.1021 10.8305H18.5814V10.0644C18.5814 9.86123 18.6593 9.66638 18.798 9.52271C18.9367 9.37905 19.1249 9.29834 19.321 9.29834ZM15.6228 15.4268V30.7479C15.6228 31.1543 15.7787 31.544 16.0561 31.8313C16.3335 32.1186 16.7098 32.28 17.1021 32.28H34.8535C35.2458 32.28 35.6221 32.1186 35.8995 31.8313C36.1769 31.544 36.3328 31.1543 36.3328 30.7479V15.4268H15.6228Z" fill="white"/>
</g>
</g>
<defs>
<filter id="filter0_d_104_1147" x="0" y="0" width="51.9431" height="51.9432" filterUnits="userSpaceOnUse" color-interpolation-filters="sRGB">
<feFlood flood-opacity="0" result="BackgroundImageFix"/>
<feColorMatrix in="SourceAlpha" type="matrix" values="0 0 0 0 0 0 0 0 0 0 0 0 0 0 0 0 0 0 127 0" result="hardAlpha"/>
<feOffset dy="4"/>
<feGaussianBlur stdDeviation="2"/>
<feComposite in2="hardAlpha" operator="out"/>
<feColorMatrix type="matrix" values="0 0 0 0 0 0 0 0 0 0 0 0 0 0 0 0 0 0 0.25 0"/>
<feBlend mode="normal" in2="BackgroundImageFix" result="effect1_dropShadow_104_1147"/>
<feBlend mode="normal" in="SourceGraphic" in2="effect1_dropShadow_104_1147" result="shape"/>
</filter>
<clipPath id="clip0_104_1147">
<rect width="23.6685" height="24.5138" fill="white" transform="translate(14.1436 9.29834)"/>
</clipPath>
</defs>
</svg>
