<svg width="52" height="52" viewBox="0 0 52 52" fill="none" xmlns="http://www.w3.org/2000/svg">
<g filter="url(#filter0_d_104_1146)">
<circle cx="25.9716" cy="21.9716" r="21.9716" fill="#FF0400"/>
<path d="M19.2832 27.2989C19.2832 26.8445 19.4637 26.4088 19.785 26.0875C20.1063 25.7662 20.5421 25.5857 20.9965 25.5857C21.4508 25.5857 21.8866 25.7662 22.2079 26.0875C22.5292 26.4088 22.7097 26.8445 22.7097 27.2989V29.0122C22.7097 29.4665 22.5292 29.9023 22.2079 30.2236C21.8866 30.5449 21.4508 30.7254 20.9965 30.7254C20.5421 30.7254 20.1063 30.5449 19.785 30.2236C19.4637 29.9023 19.2832 29.4665 19.2832 29.0122V27.2989ZM29.5627 20.4459C29.5627 19.9915 29.7432 19.5558 30.0645 19.2345C30.3858 18.9132 30.8216 18.7327 31.276 18.7327C31.7303 18.7327 32.1661 18.9132 32.4874 19.2345C32.8087 19.5558 32.9892 19.9915 32.9892 20.4459V29.0122C32.9892 29.4665 32.8087 29.9023 32.4874 30.2236C32.1661 30.5449 31.7303 30.7254 31.276 30.7254C30.8216 30.7254 30.3858 30.5449 30.0645 30.2236C29.7432 29.9023 29.5627 29.4665 29.5627 29.0122V20.4459ZM24.423 23.8724C24.423 23.418 24.6035 22.9823 24.9248 22.661C25.246 22.3397 25.6818 22.1592 26.1362 22.1592C26.5906 22.1592 27.0264 22.3397 27.3477 22.661C27.6689 22.9823 27.8495 23.418 27.8495 23.8724V29.0122C27.8495 29.4665 27.6689 29.9023 27.3477 30.2236C27.0264 30.5449 26.5906 30.7254 26.1362 30.7254C25.6818 30.7254 25.246 30.5449 24.9248 30.2236C24.6035 29.9023 24.423 29.4665 24.423 29.0122V23.8724Z" fill="white"/>
<path d="M19.2833 11.0229H17.5701C16.6613 11.0229 15.7897 11.384 15.1472 12.0265C14.5046 12.6691 14.1436 13.5407 14.1436 14.4494V32.4386C14.1436 33.3473 14.5046 34.2189 15.1472 34.8615C15.7897 35.5041 16.6613 35.8651 17.5701 35.8651H34.7026C35.6113 35.8651 36.4829 35.5041 37.1255 34.8615C37.768 34.2189 38.1291 33.3473 38.1291 32.4386V14.4494C38.1291 13.5407 37.768 12.6691 37.1255 12.0265C36.4829 11.384 35.6113 11.0229 34.7026 11.0229H32.9893V12.7362H34.7026C35.1569 12.7362 35.5927 12.9167 35.914 13.238C36.2353 13.5593 36.4158 13.9951 36.4158 14.4494V32.4386C36.4158 32.893 36.2353 33.3287 35.914 33.65C35.5927 33.9713 35.1569 34.1518 34.7026 34.1518H17.5701C17.1157 34.1518 16.6799 33.9713 16.3586 33.65C16.0373 33.3287 15.8568 32.893 15.8568 32.4386V14.4494C15.8568 13.9951 16.0373 13.5593 16.3586 13.238C16.6799 12.9167 17.1157 12.7362 17.5701 12.7362H19.2833V11.0229Z" fill="white"/>
<path d="M28.7062 10.1664C28.9334 10.1664 29.1513 10.2566 29.3119 10.4173C29.4726 10.5779 29.5628 10.7958 29.5628 11.023V12.7362C29.5628 12.9634 29.4726 13.1813 29.3119 13.342C29.1513 13.5026 28.9334 13.5929 28.7062 13.5929H23.5665C23.3393 13.5929 23.1214 13.5026 22.9607 13.342C22.8001 13.1813 22.7098 12.9634 22.7098 12.7362V11.023C22.7098 10.7958 22.8001 10.5779 22.9607 10.4173C23.1214 10.2566 23.3393 10.1664 23.5665 10.1664H28.7062ZM23.5665 8.45312C22.8849 8.45312 22.2312 8.72388 21.7493 9.20582C21.2673 9.68777 20.9966 10.3414 20.9966 11.023V12.7362C20.9966 13.4178 21.2673 14.0715 21.7493 14.5534C22.2312 15.0354 22.8849 15.3061 23.5665 15.3061H28.7062C29.3878 15.3061 30.0414 15.0354 30.5234 14.5534C31.0053 14.0715 31.2761 13.4178 31.2761 12.7362V11.023C31.2761 10.3414 31.0053 9.68777 30.5234 9.20582C30.0414 8.72388 29.3878 8.45312 28.7062 8.45312H23.5665Z" fill="white"/>
</g>
<defs>
<filter id="filter0_d_104_1146" x="0" y="0" width="51.9431" height="51.9432" filterUnits="userSpaceOnUse" color-interpolation-filters="sRGB">
<feFlood flood-opacity="0" result="BackgroundImageFix"/>
<feColorMatrix in="SourceAlpha" type="matrix" values="0 0 0 0 0 0 0 0 0 0 0 0 0 0 0 0 0 0 127 0" result="hardAlpha"/>
<feOffset dy="4"/>
<feGaussianBlur stdDeviation="2"/>
<feComposite in2="hardAlpha" operator="out"/>
<feColorMatrix type="matrix" values="0 0 0 0 0 0 0 0 0 0 0 0 0 0 0 0 0 0 0.25 0"/>
<feBlend mode="normal" in2="BackgroundImageFix" result="effect1_dropShadow_104_1146"/>
<feBlend mode="normal" in="SourceGraphic" in2="effect1_dropShadow_104_1146" result="shape"/>
</filter>
</defs>
</svg>
