<svg width="52" height="52" viewBox="0 0 52 52" fill="none" xmlns="http://www.w3.org/2000/svg">
<g filter="url(#filter0_d_104_1145)">
<circle cx="25.9716" cy="21.9716" r="21.9716" fill="#FF0400"/>
<path d="M14.989 26.6875C14.989 26.2711 15.1544 25.8718 15.4488 25.5774C15.7432 25.283 16.1425 25.1176 16.5589 25.1176H19.6986C20.1149 25.1176 20.5142 25.283 20.8086 25.5774C21.103 25.8718 21.2684 26.2711 21.2684 26.6875V31.397C21.2684 31.8134 21.103 32.2127 20.8086 32.5071C20.5142 32.8015 20.1149 32.9669 19.6986 32.9669H16.5589C16.1425 32.9669 15.7432 32.8015 15.4488 32.5071C15.1544 32.2127 14.989 31.8134 14.989 31.397V26.6875ZM22.8383 20.4081C22.8383 19.9917 23.0037 19.5924 23.2981 19.298C23.5925 19.0036 23.9918 18.8382 24.4081 18.8382H27.5478C27.9642 18.8382 28.3635 19.0036 28.6579 19.298C28.9523 19.5924 29.1177 19.9917 29.1177 20.4081V31.397C29.1177 31.8134 28.9523 32.2127 28.6579 32.5071C28.3635 32.8015 27.9642 32.9669 27.5478 32.9669H24.4081C23.9918 32.9669 23.5925 32.8015 23.2981 32.5071C23.0037 32.2127 22.8383 31.8134 22.8383 31.397V20.4081ZM30.6875 12.5588C30.6875 12.1425 30.8529 11.7432 31.1473 11.4488C31.4417 11.1543 31.841 10.989 32.2574 10.989H35.3971C35.8134 10.989 36.2127 11.1543 36.5071 11.4488C36.8015 11.7432 36.9669 12.1425 36.9669 12.5588V31.397C36.9669 31.8134 36.8015 32.2127 36.5071 32.5071C36.2127 32.8015 35.8134 32.9669 35.3971 32.9669H32.2574C31.841 32.9669 31.4417 32.8015 31.1473 32.5071C30.8529 32.2127 30.6875 31.8134 30.6875 31.397V12.5588Z" fill="white"/>
</g>
<defs>
<filter id="filter0_d_104_1145" x="0" y="0" width="51.9431" height="51.9432" filterUnits="userSpaceOnUse" color-interpolation-filters="sRGB">
<feFlood flood-opacity="0" result="BackgroundImageFix"/>
<feColorMatrix in="SourceAlpha" type="matrix" values="0 0 0 0 0 0 0 0 0 0 0 0 0 0 0 0 0 0 127 0" result="hardAlpha"/>
<feOffset dy="4"/>
<feGaussianBlur stdDeviation="2"/>
<feComposite in2="hardAlpha" operator="out"/>
<feColorMatrix type="matrix" values="0 0 0 0 0 0 0 0 0 0 0 0 0 0 0 0 0 0 0.25 0"/>
<feBlend mode="normal" in2="BackgroundImageFix" result="effect1_dropShadow_104_1145"/>
<feBlend mode="normal" in="SourceGraphic" in2="effect1_dropShadow_104_1145" result="shape"/>
</filter>
</defs>
</svg>
