<svg width="243.672852" height="51.906250" viewBox="0 0 243.673 51.9062" fill="none" xmlns="http://www.w3.org/2000/svg" xmlns:xlink="http://www.w3.org/1999/xlink">
	<desc>
			Created with Pixso.
	</desc>
	<defs/>
	<path id="โรงเรียนสกลราช การเช็คการเข้าสอนของคุณครู" d="M8.21 2.68C8.52 2.39 8.67 2.03 8.67 1.59C8.67 1.39 8.63 1.2 8.56 1.01C8.49 0.81 8.38 0.64 8.23 0.5C8.08 0.35 7.9 0.23 7.68 0.14Q7.36 0 6.92 0L2.98 0Q2.32 0 1.76 0.14C1.4 0.23 1.08 0.38 0.81 0.57C0.55 0.76 0.34 1 0.2 1.29C0.05 1.57 -0.01 1.91 0 2.29Q0 2.73 0.15 3.04Q0.22 3.2 0.32 3.34Q0.41 3.48 0.53 3.6Q0.76 3.85 1.01 4.07C1.19 4.21 1.36 4.36 1.51 4.53C1.67 4.69 1.79 4.88 1.89 5.09C1.99 5.3 2.04 5.55 2.04 5.85L2.04 18.78Q2.04 19.2 2.17 19.57Q2.27 19.84 2.44 20.06Q2.5 20.15 2.57 20.23C2.76 20.41 2.99 20.55 3.26 20.67C3.53 20.77 3.86 20.82 4.23 20.82L5.57 20.82Q6.01 20.82 6.34 20.68Q6.67 20.54 6.89 20.31Q7.09 20.09 7.2 19.84Q7.21 19.82 7.21 19.79C7.29 19.59 7.32 19.4 7.32 19.2C7.32 18.76 7.17 18.39 6.87 18.09C6.58 17.78 6.15 17.62 5.57 17.62L5.57 5.53C5.57 5.17 5.52 4.86 5.42 4.6C5.32 4.33 5.2 4.1 5.06 3.92C4.92 3.73 4.78 3.57 4.62 3.45Q4.39 3.25 4.23 3.12L6.92 3.12Q7.76 3.12 8.2 2.7Q8.21 2.69 8.21 2.68ZM47.84 6.01C48.13 5.73 48.28 5.41 48.28 5.04L48.28 3.42C48.28 3.2 48.23 3.01 48.14 2.84C48.03 2.66 47.9 2.52 47.73 2.4C47.56 2.28 47.38 2.19 47.17 2.14Q46.84 2.04 46.51 2.04C46.29 2.04 46.08 2.07 45.87 2.14C45.65 2.19 45.46 2.28 45.29 2.4C45.13 2.52 45 2.66 44.9 2.84C44.8 3.01 44.75 3.2 44.75 3.42L44.75 3.6L39.03 3.6Q38.67 3.6 38.42 3.73C38.24 3.8 38.09 3.91 37.98 4.04C37.86 4.18 37.77 4.33 37.71 4.5C37.65 4.66 37.62 4.83 37.62 5.01Q37.62 5.13 37.64 5.25Q37.66 5.39 37.71 5.53C37.77 5.69 37.86 5.84 37.98 5.98C38.09 6.11 38.24 6.22 38.42 6.31C38.58 6.38 38.79 6.42 39.03 6.42L46.51 6.42C47.11 6.42 47.55 6.28 47.84 6.01ZM87.67 12.12C87.67 11.4 87.52 10.75 87.21 10.17L87.7 9.65C87.89 9.44 88.02 9.22 88.09 9C88.16 8.77 88.18 8.54 88.15 8.32C88.12 8.1 88.05 7.9 87.93 7.7C87.82 7.5 87.67 7.33 87.48 7.2C87.3 7.07 87.1 6.97 86.87 6.89C86.65 6.79 86.42 6.75 86.18 6.75Q85.84 6.75 85.48 6.9Q85.12 7.06 84.82 7.42L84.34 8C83.74 7.8 83.05 7.7 82.29 7.7Q81.23 7.7 80.32 7.95C79.73 8.1 79.2 8.32 78.75 8.6C78.29 8.89 77.9 9.21 77.59 9.59C77.29 9.96 77.07 10.37 76.95 10.81C76.88 11.04 76.86 11.25 76.89 11.45C76.93 11.65 77 11.83 77.11 12C77.21 12.15 77.33 12.29 77.48 12.4C77.63 12.52 77.78 12.6 77.93 12.67C78.15 12.75 78.38 12.79 78.62 12.79Q79 12.78 79.32 12.65C79.55 12.56 79.76 12.43 79.95 12.26C80.14 12.08 80.29 11.86 80.4 11.6C80.52 11.36 80.75 11.18 81.09 11.04C81.43 10.91 81.81 10.84 82.23 10.84C82.45 10.84 82.66 10.86 82.87 10.9Q83.2 10.96 83.43 11.09C83.6 11.16 83.73 11.26 83.82 11.37C83.93 11.47 83.98 11.59 83.98 11.73C83.98 11.96 83.85 12.14 83.59 12.26C83.33 12.39 83.02 12.48 82.65 12.56C82.29 12.63 81.91 12.68 81.53 12.71C81.14 12.75 80.82 12.78 80.56 12.82C80.01 12.92 79.46 13.06 78.93 13.26Q78.2 13.54 77.6 14Q77.56 14.03 77.53 14.06C77.11 14.39 76.78 14.8 76.53 15.29C76.28 15.78 76.15 16.36 76.15 17.04Q76.15 18.31 76.67 19.15Q77.15 19.91 77.83 20.37Q77.91 20.42 77.98 20.46C78.51 20.78 79.08 20.96 79.7 21.03C80.31 21.1 80.88 21.06 81.4 20.92C81.7 20.84 81.95 20.73 82.15 20.57C82.35 20.41 82.5 20.22 82.59 20.03Q82.66 19.88 82.69 19.72Q82.73 19.55 82.73 19.37C82.74 19.14 82.7 18.92 82.61 18.71C82.48 18.36 82.24 18.08 81.89 17.89C81.54 17.68 81.09 17.64 80.53 17.78C80.35 17.83 80.19 17.79 80.04 17.67C79.9 17.53 79.82 17.33 79.82 17.07C79.82 16.9 79.87 16.74 79.95 16.6C80.04 16.47 80.16 16.35 80.31 16.26Q80.53 16.1 80.82 16.03C81.02 15.96 81.23 15.92 81.43 15.9C81.65 15.87 81.89 15.84 82.14 15.82C82.4 15.79 82.65 15.76 82.9 15.73C83.15 15.7 83.39 15.66 83.61 15.62C83.82 15.58 84.01 15.53 84.15 15.48L84.15 19.42C84.15 19.69 84.2 19.93 84.31 20.14C84.41 20.33 84.54 20.5 84.7 20.64C84.87 20.77 85.05 20.87 85.26 20.93C85.47 21.01 85.68 21.04 85.9 21.04C86.12 21.04 86.33 21.01 86.54 20.93C86.76 20.87 86.95 20.77 87.11 20.64C87.27 20.5 87.41 20.33 87.51 20.14C87.62 19.93 87.67 19.69 87.67 19.42L87.67 12.12ZM147.76 17.89Q148.23 16.84 148.23 15.35C148.23 14.9 148.16 14.48 148.03 14.1C147.89 13.72 147.72 13.38 147.51 13.09C147.3 12.79 147.08 12.53 146.84 12.32C146.6 12.1 146.37 11.93 146.15 11.79C146.36 11.64 146.59 11.45 146.84 11.25C147.09 11.04 147.32 10.81 147.53 10.56Q148.11 9.85 148.04 9.23C148.01 8.8 147.85 8.45 147.56 8.18C147.4 8.05 147.22 7.93 147.01 7.84C146.81 7.75 146.6 7.69 146.37 7.68C146.15 7.66 145.93 7.69 145.7 7.76C145.47 7.82 145.26 7.94 145.06 8.12C144.79 8.37 144.53 8.67 144.28 9.03C144.03 9.37 143.74 9.67 143.4 9.92C143.28 10 143.15 10.07 143.01 10.14C142.88 10.19 142.7 10.23 142.48 10.26Q142.4 10.27 142.32 10.29Q141.95 10.4 141.64 10.73C141.39 11 141.26 11.32 141.26 11.7Q141.26 11.85 141.29 12Q141.36 12.28 141.54 12.54C141.73 12.79 141.99 12.96 142.31 13.04Q142.45 13.07 142.59 13.09C142.68 13.09 142.78 13.1 142.89 13.14Q143.06 13.18 143.26 13.28C143.4 13.34 143.56 13.43 143.75 13.56C144.01 13.76 144.22 14.02 144.37 14.34C144.54 14.66 144.62 15.02 144.62 15.42Q144.62 16.28 144.23 16.9Q144.13 17.05 144.01 17.18C143.61 17.63 143 17.85 142.18 17.85L141.06 17.85L141.06 9.62C141.06 9.09 140.9 8.69 140.57 8.43C140.25 8.16 139.84 8.03 139.34 8.03L137.87 8.03C137.57 8.03 137.31 8.07 137.09 8.17C136.87 8.26 136.69 8.39 136.54 8.54C136.4 8.7 136.29 8.88 136.22 9.07C136.14 9.26 136.11 9.45 136.11 9.65C136.11 10.04 136.23 10.38 136.47 10.68Q136.5 10.73 136.55 10.77Q136.9 11.13 137.54 11.2L137.54 19.12C137.54 19.65 137.74 20.07 138.14 20.37C138.54 20.67 139.06 20.82 139.68 20.82L142.67 20.82Q143.43 20.82 144.17 20.67Q144.45 20.61 144.73 20.53C145.41 20.33 146 20.01 146.51 19.57C147.03 19.14 147.45 18.57 147.76 17.89ZM18.52 18.35Q18.87 17.57 18.87 16.64Q18.87 15.46 18.4 14.73C18.09 14.23 17.69 13.83 17.2 13.53C16.71 13.21 16.16 12.98 15.54 12.84C14.94 12.68 14.34 12.56 13.75 12.46C13.51 12.43 13.26 12.39 13.01 12.34C12.76 12.28 12.53 12.21 12.32 12.14C12.13 12.05 11.96 11.96 11.82 11.87Q11.65 11.73 11.64 11.57Q11.64 11.55 11.64 11.54C11.64 11.42 11.68 11.31 11.76 11.23C11.86 11.14 11.98 11.06 12.12 11.01C12.27 10.95 12.43 10.91 12.61 10.89Q12.89 10.84 13.17 10.84C13.56 10.84 13.93 10.9 14.28 11.01Q14.71 11.16 14.95 11.46Q14.99 11.51 15.03 11.57C15.29 12.01 15.62 12.3 16.03 12.45C16.44 12.58 16.9 12.55 17.4 12.34C17.59 12.26 17.76 12.14 17.92 12C18.08 11.84 18.21 11.66 18.29 11.46C18.38 11.27 18.41 11.05 18.4 10.81C18.4 10.57 18.33 10.32 18.2 10.07C17.98 9.66 17.69 9.3 17.34 9C16.99 8.69 16.58 8.45 16.14 8.26C15.7 8.06 15.22 7.92 14.7 7.84Q13.93 7.7 13.11 7.7C12.46 7.7 11.84 7.79 11.25 7.98C10.66 8.16 10.14 8.41 9.67 8.73C9.21 9.05 8.83 9.43 8.53 9.87Q8.26 10.27 8.12 10.7Q8.03 10.99 8 11.29Q7.86 12.45 8.28 13.2C8.56 13.69 8.94 14.09 9.43 14.4C9.93 14.7 10.49 14.94 11.11 15.1Q12.03 15.34 12.89 15.48C13.11 15.52 13.35 15.57 13.62 15.62C13.9 15.67 14.16 15.75 14.4 15.84C14.65 15.93 14.86 16.05 15.01 16.2C15.18 16.34 15.26 16.53 15.26 16.76Q15.26 16.99 15.17 17.17Q15.13 17.25 15.07 17.32C14.96 17.48 14.8 17.61 14.61 17.73C14.41 17.83 14.18 17.91 13.93 17.96C13.68 18.02 13.43 18.04 13.17 18.04C12.66 18.04 12.23 17.96 11.87 17.79Q11.42 17.56 11.34 17.24Q11.33 17.19 11.32 17.14Q11.25 16.39 10.86 16.01Q10.48 15.64 9.59 15.64Q9.46 15.64 9.34 15.65Q9.11 15.68 8.89 15.76C8.67 15.84 8.47 15.96 8.29 16.12C8.13 16.27 8 16.45 7.9 16.68C7.81 16.9 7.77 17.15 7.79 17.43C7.82 17.9 7.98 18.36 8.25 18.81C8.53 19.26 8.9 19.65 9.37 20C9.84 20.34 10.4 20.61 11.04 20.82C11.69 21.03 12.4 21.14 13.17 21.14C14.02 21.14 14.8 21.03 15.5 20.82Q16.54 20.51 17.29 19.93C17.79 19.54 18.18 19.06 18.45 18.51Q18.49 18.43 18.52 18.35ZM35.93 20.26C36.04 20.06 36.09 19.83 36.09 19.57L36.09 9.28C36.09 9.02 36.04 8.79 35.93 8.6C35.84 8.41 35.71 8.24 35.54 8.1C35.39 7.97 35.2 7.87 34.98 7.81C34.77 7.73 34.56 7.7 34.34 7.7C34.11 7.7 33.89 7.73 33.67 7.81C33.46 7.87 33.27 7.97 33.11 8.1C32.95 8.24 32.82 8.41 32.71 8.6C32.62 8.79 32.57 9.02 32.57 9.28L32.57 19.57C32.57 19.83 32.62 20.06 32.71 20.26C32.82 20.45 32.95 20.61 33.11 20.75Q33.14 20.77 33.18 20.8Q33.4 20.95 33.67 21.03C33.89 21.1 34.11 21.14 34.34 21.14C34.56 21.14 34.77 21.1 34.98 21.03Q35.31 20.93 35.54 20.75C35.71 20.61 35.84 20.45 35.93 20.26ZM48.4 18.35Q48.75 17.57 48.75 16.64Q48.75 15.46 48.28 14.73C47.96 14.23 47.56 13.83 47.07 13.53C46.58 13.21 46.03 12.98 45.42 12.84C44.81 12.68 44.21 12.56 43.62 12.46C43.38 12.43 43.14 12.39 42.89 12.34C42.64 12.28 42.41 12.21 42.2 12.14C42 12.05 41.83 11.96 41.7 11.87Q41.53 11.73 41.51 11.57Q41.51 11.55 41.51 11.54C41.51 11.42 41.55 11.31 41.64 11.23C41.73 11.14 41.85 11.06 42 11.01C42.14 10.95 42.3 10.91 42.48 10.89Q42.76 10.84 43.04 10.84C43.44 10.84 43.81 10.9 44.15 11.01Q44.59 11.16 44.82 11.46Q44.87 11.51 44.9 11.57C45.16 12.01 45.5 12.3 45.9 12.45C46.32 12.58 46.78 12.55 47.28 12.34C47.46 12.26 47.64 12.14 47.79 12C47.96 11.84 48.08 11.66 48.17 11.46C48.25 11.27 48.29 11.05 48.28 10.81C48.28 10.57 48.21 10.32 48.07 10.07C47.86 9.66 47.57 9.3 47.21 9C46.86 8.69 46.46 8.45 46.01 8.26C45.57 8.06 45.09 7.92 44.57 7.84Q43.81 7.7 42.98 7.7C42.33 7.7 41.71 7.79 41.12 7.98C40.54 8.16 40.01 8.41 39.54 8.73C39.08 9.05 38.7 9.43 38.4 9.87C38.11 10.31 37.93 10.78 37.87 11.29Q37.73 12.45 38.15 13.2C38.43 13.69 38.82 14.09 39.31 14.4C39.81 14.7 40.37 14.94 40.98 15.1Q41.9 15.34 42.76 15.48C42.98 15.52 43.23 15.57 43.5 15.62C43.78 15.67 44.04 15.75 44.28 15.84C44.53 15.93 44.73 16.05 44.89 16.2C45.05 16.34 45.14 16.53 45.14 16.76Q45.14 16.99 45.04 17.17Q45.01 17.25 44.95 17.32C44.83 17.48 44.68 17.61 44.48 17.73C44.28 17.83 44.06 17.91 43.81 17.96C43.56 18.02 43.3 18.04 43.04 18.04C42.53 18.04 42.1 17.96 41.75 17.79C41.4 17.61 41.22 17.4 41.2 17.14Q41.12 16.39 40.73 16.01Q40.36 15.64 39.46 15.64Q39.34 15.64 39.21 15.65Q38.98 15.68 38.76 15.76C38.54 15.84 38.34 15.96 38.17 16.12C38 16.27 37.87 16.45 37.78 16.68C37.68 16.9 37.65 17.15 37.67 17.43C37.7 17.9 37.85 18.36 38.12 18.81C38.4 19.26 38.78 19.65 39.25 20C39.71 20.34 40.27 20.61 40.92 20.82C41.56 21.03 42.27 21.14 43.04 21.14C43.9 21.14 44.67 21.03 45.37 20.82C46.07 20.61 46.67 20.32 47.17 19.93C47.67 19.54 48.05 19.06 48.32 18.51Q48.36 18.43 48.4 18.35ZM100.79 20.15C100.9 19.95 100.95 19.72 100.95 19.45L100.95 13.01C100.95 12.1 100.8 11.32 100.51 10.65C100.23 9.98 99.83 9.43 99.32 9C98.82 8.56 98.23 8.23 97.53 8.03C96.83 7.81 96.07 7.7 95.26 7.7Q94.23 7.7 93.29 7.98Q92.36 8.26 91.61 8.78C91.12 9.12 90.7 9.54 90.36 10.03C90.02 10.51 89.8 11.04 89.68 11.64C89.66 11.78 89.7 11.93 89.79 12.07Q89.93 12.28 90.12 12.45C90.25 12.56 90.36 12.67 90.46 12.76C90.57 12.84 90.62 12.91 90.62 12.95C90.62 12.98 90.57 13.04 90.48 13.12C90.39 13.2 90.28 13.31 90.17 13.43C90.06 13.55 89.96 13.68 89.87 13.82C89.79 13.97 89.75 14.13 89.75 14.29L89.75 19.45Q89.75 19.85 89.89 20.15C89.99 20.35 90.13 20.52 90.29 20.65Q90.33 20.68 90.37 20.71Q90.59 20.85 90.86 20.93C91.07 21.01 91.29 21.04 91.51 21.04C91.73 21.04 91.94 21.01 92.15 20.93C92.37 20.87 92.56 20.78 92.73 20.65C92.9 20.52 93.03 20.35 93.12 20.15C93.23 19.95 93.28 19.72 93.28 19.45L93.28 14.45C93.28 14.25 93.32 14.07 93.4 13.92C93.49 13.76 93.57 13.62 93.67 13.5C93.77 13.37 93.87 13.26 93.95 13.15C94.03 13.04 94.07 12.93 94.07 12.82C94.07 12.71 94.03 12.59 93.93 12.48Q93.81 12.31 93.65 12.15C93.56 12.04 93.47 11.93 93.39 11.84C93.31 11.73 93.29 11.64 93.31 11.54C93.42 11.28 93.65 11.07 94 10.9C94.34 10.73 94.76 10.65 95.26 10.65C95.55 10.65 95.83 10.7 96.09 10.81C96.36 10.91 96.59 11.06 96.79 11.26C96.99 11.45 97.15 11.68 97.26 11.95C97.38 12.22 97.43 12.52 97.43 12.85L97.43 19.45Q97.43 19.85 97.57 20.15C97.68 20.35 97.81 20.52 97.96 20.65Q98 20.68 98.04 20.71Q98.26 20.85 98.53 20.93C98.75 21.01 98.97 21.04 99.2 21.04C99.42 21.04 99.63 21.01 99.84 20.93Q100.17 20.84 100.4 20.65C100.57 20.52 100.7 20.35 100.79 20.15ZM113.76 20.14C113.87 19.93 113.92 19.69 113.92 19.42L113.92 12.12Q113.92 11.07 113.5 10.26C113.22 9.71 112.83 9.25 112.34 8.87C111.86 8.48 111.29 8.19 110.64 8C109.99 7.8 109.29 7.7 108.54 7.7Q107.48 7.7 106.57 7.95C105.98 8.1 105.45 8.32 105 8.6C104.54 8.89 104.15 9.21 103.84 9.59C103.54 9.96 103.32 10.37 103.2 10.81C103.13 11.04 103.11 11.25 103.14 11.45C103.18 11.65 103.25 11.83 103.36 12C103.46 12.15 103.59 12.29 103.73 12.4C103.88 12.52 104.03 12.6 104.18 12.67C104.4 12.75 104.63 12.79 104.87 12.79Q105.25 12.78 105.57 12.65C105.8 12.56 106.01 12.43 106.2 12.26C106.39 12.08 106.54 11.86 106.65 11.6C106.77 11.36 107 11.18 107.34 11.04C107.68 10.91 108.06 10.84 108.48 10.84C108.7 10.84 108.91 10.86 109.12 10.9Q109.45 10.96 109.68 11.09C109.85 11.16 109.98 11.26 110.07 11.37C110.18 11.47 110.23 11.59 110.23 11.73C110.23 11.96 110.1 12.14 109.84 12.26C109.58 12.39 109.27 12.48 108.9 12.56C108.54 12.63 108.16 12.68 107.78 12.71C107.39 12.75 107.07 12.78 106.81 12.82C106.26 12.92 105.72 13.06 105.18 13.26Q104.45 13.54 103.85 14Q103.81 14.03 103.78 14.06C103.36 14.39 103.03 14.8 102.78 15.29C102.53 15.78 102.4 16.36 102.4 17.04Q102.4 18.31 102.92 19.15Q103.4 19.91 104.08 20.37Q104.16 20.42 104.23 20.46C104.76 20.78 105.34 20.96 105.95 21.03C106.56 21.1 107.13 21.06 107.65 20.92C107.95 20.84 108.2 20.73 108.4 20.57C108.6 20.41 108.75 20.22 108.84 20.03Q108.91 19.88 108.94 19.72Q108.98 19.55 108.98 19.37C108.99 19.14 108.95 18.92 108.86 18.71C108.73 18.36 108.49 18.08 108.14 17.89C107.79 17.68 107.34 17.64 106.78 17.78C106.6 17.83 106.44 17.79 106.29 17.67C106.15 17.53 106.07 17.33 106.07 17.07C106.07 16.9 106.12 16.74 106.2 16.6C106.29 16.47 106.41 16.35 106.56 16.26Q106.78 16.1 107.07 16.03C107.27 15.96 107.48 15.92 107.68 15.9C107.9 15.87 108.14 15.84 108.39 15.82C108.65 15.79 108.9 15.76 109.15 15.73C109.4 15.7 109.64 15.66 109.86 15.62C110.07 15.58 110.26 15.53 110.4 15.48L110.4 19.42C110.4 19.69 110.45 19.93 110.56 20.14C110.66 20.33 110.79 20.5 110.95 20.64C111.12 20.77 111.3 20.87 111.51 20.93C111.72 21.01 111.93 21.04 112.15 21.04C112.37 21.04 112.59 21.01 112.79 20.93C113.01 20.87 113.2 20.77 113.36 20.64C113.52 20.5 113.66 20.33 113.76 20.14ZM125.9 18.35Q126.25 17.57 126.25 16.64Q126.25 15.46 125.78 14.73C125.47 14.23 125.06 13.83 124.57 13.53C124.09 13.21 123.53 12.98 122.92 12.84C122.31 12.68 121.72 12.56 121.12 12.46C120.88 12.43 120.64 12.39 120.39 12.34C120.14 12.28 119.91 12.21 119.7 12.14C119.5 12.05 119.34 11.96 119.2 11.87Q119.03 11.73 119.01 11.57Q119.01 11.55 119.01 11.54C119.01 11.42 119.05 11.31 119.14 11.23C119.23 11.14 119.35 11.06 119.5 11.01C119.64 10.95 119.8 10.91 119.98 10.89Q120.26 10.84 120.54 10.84C120.94 10.84 121.31 10.9 121.65 11.01Q122.09 11.16 122.32 11.46Q122.37 11.51 122.4 11.57C122.66 12.01 123 12.3 123.4 12.45C123.82 12.58 124.28 12.55 124.78 12.34C124.97 12.26 125.14 12.14 125.29 12C125.46 11.84 125.59 11.66 125.67 11.46C125.75 11.27 125.79 11.05 125.78 10.81C125.78 10.57 125.71 10.32 125.57 10.07C125.36 9.66 125.07 9.3 124.72 9C124.36 8.69 123.96 8.45 123.51 8.26C123.07 8.06 122.6 7.92 122.07 7.84Q121.31 7.7 120.48 7.7C119.84 7.7 119.22 7.79 118.62 7.98C118.04 8.16 117.51 8.41 117.04 8.73C116.59 9.05 116.2 9.43 115.9 9.87C115.61 10.31 115.43 10.78 115.37 11.29Q115.23 12.45 115.65 13.2C115.93 13.69 116.32 14.09 116.81 14.4C117.31 14.7 117.87 14.94 118.48 15.1Q119.4 15.34 120.26 15.48C120.48 15.52 120.73 15.57 121 15.62C121.28 15.67 121.54 15.75 121.78 15.84C122.03 15.93 122.23 16.05 122.39 16.2C122.55 16.34 122.64 16.53 122.64 16.76Q122.64 16.99 122.55 17.17Q122.51 17.25 122.45 17.32C122.34 17.48 122.18 17.61 121.98 17.73C121.78 17.83 121.56 17.91 121.31 17.96C121.06 18.02 120.8 18.04 120.54 18.04C120.03 18.04 119.6 17.96 119.25 17.79C118.9 17.61 118.72 17.4 118.7 17.14Q118.62 16.39 118.23 16.01Q117.86 15.64 116.97 15.64Q116.84 15.64 116.71 15.65Q116.48 15.68 116.26 15.76C116.04 15.84 115.85 15.96 115.67 16.12C115.5 16.27 115.37 16.45 115.28 16.68C115.18 16.9 115.15 17.15 115.17 17.43C115.2 17.9 115.35 18.36 115.62 18.81C115.9 19.26 116.28 19.65 116.75 20C117.22 20.34 117.77 20.61 118.42 20.82C119.06 21.03 119.77 21.14 120.54 21.14C121.4 21.14 122.17 21.03 122.87 20.82C123.57 20.61 124.17 20.32 124.67 19.93C125.17 19.54 125.55 19.06 125.82 18.51Q125.86 18.43 125.9 18.35ZM75.31 19.7C75.44 19.44 75.51 19.16 75.51 18.87C75.51 18.48 75.39 18.13 75.15 17.79C74.91 17.45 74.59 17.18 74.2 16.98L74.2 9.34C74.2 9.08 74.15 8.85 74.04 8.67C73.95 8.47 73.82 8.3 73.65 8.17C73.5 8.03 73.31 7.93 73.09 7.87C72.88 7.8 72.67 7.76 72.45 7.76C72.22 7.76 72 7.8 71.78 7.87C71.57 7.93 71.38 8.03 71.21 8.17C71.06 8.3 70.93 8.47 70.82 8.67C70.73 8.85 70.68 9.08 70.68 9.34L70.68 16C70.68 16.33 70.61 16.63 70.46 16.89Q70.31 17.15 70.1 17.36Q70.01 17.46 69.9 17.54C69.68 17.72 69.44 17.85 69.17 17.95C68.9 18.03 68.64 18.07 68.39 18.07C67.68 18.07 67.19 17.87 66.92 17.46C66.66 17.05 66.53 16.47 66.53 15.73L66.53 9.34C66.53 9.08 66.48 8.85 66.37 8.67C66.28 8.47 66.15 8.3 65.98 8.17C65.81 8.03 65.62 7.93 65.4 7.87C65.19 7.8 64.98 7.76 64.76 7.76Q64.43 7.76 64.11 7.87C63.9 7.93 63.71 8.03 63.54 8.17C63.38 8.3 63.24 8.47 63.14 8.67C63.04 8.85 63 9.08 63 9.34L63 15.9C63 16.83 63.13 17.62 63.4 18.28C63.67 18.93 64.04 19.47 64.5 19.89C64.95 20.29 65.48 20.59 66.07 20.79C66.68 20.98 67.31 21.07 67.96 21.07C68.5 21.07 69.01 21 69.5 20.85C70 20.72 70.46 20.51 70.9 20.21C71.14 20.45 71.44 20.65 71.79 20.79C72.15 20.94 72.52 21.01 72.92 21.01C73.27 21.01 73.61 20.95 73.92 20.84C74.24 20.72 74.52 20.57 74.75 20.39C74.99 20.19 75.17 19.96 75.31 19.7ZM135 20.15C135.1 19.95 135.15 19.72 135.15 19.45L135.15 12.4Q135.15 11.35 134.78 10.51C134.54 9.94 134.2 9.45 133.76 9.04C133.32 8.64 132.8 8.32 132.2 8.1C131.6 7.88 130.93 7.76 130.22 7.76Q129.23 7.76 128.62 7.96Q128.03 8.15 127.68 8.34C127.42 8.47 127.22 8.63 127.06 8.81C126.91 8.98 126.81 9.17 126.75 9.35C126.69 9.54 126.68 9.73 126.7 9.93C126.72 10.12 126.77 10.3 126.86 10.48Q127 10.76 127.23 11C127.39 11.15 127.57 11.27 127.79 11.35C128.01 11.43 128.25 11.46 128.51 11.45C128.78 11.43 129.07 11.34 129.39 11.2C129.45 11.16 129.55 11.13 129.68 11.1C129.82 11.07 130 11.06 130.22 11.06Q130.69 11.06 131.01 11.28Q131.14 11.36 131.25 11.48C131.5 11.75 131.62 12.1 131.62 12.54L131.62 19.45C131.62 19.72 131.67 19.96 131.78 20.17C131.88 20.36 132.02 20.53 132.18 20.67C132.36 20.8 132.55 20.9 132.76 20.96C132.98 21.04 133.2 21.07 133.42 21.07C133.64 21.07 133.85 21.04 134.06 20.96C134.27 20.9 134.45 20.8 134.61 20.67C134.77 20.52 134.9 20.35 135 20.15ZM30.37 17.2C30.64 16.38 30.78 15.44 30.78 14.39C30.78 13.23 30.62 12.24 30.29 11.42C29.98 10.58 29.55 9.9 29.01 9.37Q28.52 8.88 27.95 8.55Q27.56 8.33 27.14 8.18C26.44 7.92 25.7 7.79 24.92 7.79C24.46 7.79 24.05 7.84 23.68 7.95Q23.14 8.1 22.75 8.37C22.49 8.54 22.28 8.73 22.12 8.95C21.98 9.16 21.89 9.37 21.86 9.59C21.82 9.84 21.83 10.08 21.89 10.31C21.95 10.54 22.05 10.74 22.2 10.92C22.36 11.08 22.55 11.22 22.78 11.32C23.02 11.43 23.3 11.48 23.64 11.48C23.74 11.48 23.86 11.46 23.98 11.43L24.36 11.31C24.48 11.26 24.61 11.21 24.73 11.18C24.87 11.14 25 11.12 25.12 11.12Q25.42 11.12 25.68 11.22Q25.86 11.29 26.01 11.4C26.28 11.59 26.51 11.84 26.68 12.15C26.87 12.46 27.01 12.83 27.11 13.25C27.21 13.66 27.26 14.1 27.26 14.56C27.26 15.03 27.21 15.47 27.12 15.9C27.04 16.33 26.9 16.71 26.71 17.04C26.54 17.36 26.32 17.63 26.06 17.82C25.8 18.01 25.5 18.1 25.15 18.1L24.73 18.1L23.2 12.51C23.12 12.23 22.99 12 22.82 11.82C22.67 11.64 22.49 11.5 22.28 11.4C22.07 11.31 21.84 11.26 21.59 11.26C21.35 11.26 21.11 11.3 20.86 11.39C20.67 11.44 20.49 11.53 20.31 11.65C20.14 11.77 20 11.91 19.87 12.07C19.76 12.24 19.68 12.42 19.64 12.62C19.59 12.82 19.61 13.03 19.67 13.25L21.4 19.26C21.59 19.93 21.93 20.39 22.42 20.64C22.92 20.89 23.52 21.01 24.21 21.01L24.95 21.01Q26.28 21.01 27.36 20.57C28.07 20.27 28.69 19.84 29.2 19.28C29.71 18.7 30.1 18.01 30.37 17.2ZM60.65 18.23Q61.07 17.29 61.07 16.12L61.07 9.4C61.07 9.14 61.02 8.92 60.92 8.73C60.82 8.53 60.69 8.37 60.53 8.25C60.36 8.11 60.17 8.01 59.95 7.95C59.74 7.88 59.53 7.84 59.31 7.84Q58.98 7.84 58.65 7.95C58.44 8.01 58.26 8.11 58.09 8.25C57.92 8.37 57.79 8.53 57.68 8.73C57.59 8.92 57.54 9.14 57.54 9.4L57.54 16.34C57.54 16.9 57.36 17.35 57 17.7C56.63 18.03 56.12 18.2 55.46 18.2C55.14 18.2 54.85 18.15 54.59 18.06C54.33 17.96 54.11 17.84 53.92 17.68C53.74 17.52 53.61 17.33 53.51 17.12C53.42 16.9 53.38 16.67 53.39 16.43C53.4 16.25 53.45 16.08 53.54 15.93C53.64 15.79 53.75 15.67 53.89 15.57C54.03 15.48 54.18 15.41 54.34 15.37C54.51 15.33 54.67 15.31 54.82 15.32C55.12 15.33 55.38 15.3 55.61 15.21C55.83 15.13 56.03 15.02 56.18 14.87C56.35 14.72 56.48 14.56 56.56 14.37C56.64 14.17 56.68 13.96 56.68 13.75C56.68 13.55 56.65 13.35 56.59 13.15C56.54 12.95 56.44 12.78 56.29 12.64C56.16 12.48 55.98 12.36 55.75 12.28C55.53 12.18 55.26 12.14 54.93 12.15L54.32 12.18C54.12 12.2 53.92 12.16 53.75 12.04C53.58 11.92 53.47 11.74 53.42 11.51C53.4 11.42 53.4 11.32 53.43 11.21C53.46 11.11 53.52 11.07 53.59 11.09C54.13 11.16 54.56 11.06 54.89 10.79C55.21 10.51 55.37 10.09 55.37 9.53C55.37 9.3 55.32 9.08 55.21 8.89C55.11 8.68 54.96 8.5 54.78 8.34C54.59 8.18 54.36 8.06 54.09 7.98Q53.68 7.84 53.2 7.84C52.67 7.84 52.19 7.93 51.78 8.12C51.37 8.3 51.03 8.54 50.75 8.84C50.46 9.13 50.25 9.47 50.09 9.85C49.94 10.23 49.87 10.61 49.87 11C49.87 11.62 50 12.17 50.26 12.64C50.52 13.09 50.83 13.46 51.18 13.75C50.86 13.98 50.57 14.3 50.32 14.68C50.07 15.06 49.92 15.53 49.87 16.09Q49.79 17.2 50.18 18.12Q50.19 18.15 50.2 18.17C50.48 18.78 50.88 19.31 51.39 19.76C51.9 20.2 52.5 20.54 53.2 20.78C53.91 21.02 54.66 21.14 55.46 21.14C56.28 21.14 57.02 21.02 57.7 20.79Q58.73 20.45 59.48 19.81C59.98 19.37 60.37 18.84 60.65 18.23ZM48 26.5C48.03 26.2 47.88 25.93 47.56 25.67C47.29 25.45 47.06 25.35 46.87 25.39C46.68 25.41 46.51 25.48 46.34 25.6Q46.07 25.78 45.78 25.98C45.58 26.11 45.34 26.18 45.06 26.18L41.73 26.18Q40.86 26.18 40.18 26.43C39.74 26.59 39.36 26.8 39.04 27.07C38.73 27.33 38.5 27.64 38.34 28C38.17 28.34 38.09 28.7 38.09 29.09C38.09 29.56 38.18 29.95 38.36 30.28C38.52 30.59 38.73 30.84 38.98 31.04C39.23 31.23 39.5 31.37 39.79 31.46C40.07 31.55 40.32 31.59 40.54 31.59C40.98 31.59 41.34 31.52 41.62 31.39C41.89 31.24 42.14 31.1 42.37 30.98L42.79 30.71C43.01 30.92 43.3 31.12 43.67 31.31C44.02 31.5 44.43 31.59 44.9 31.59C45.3 31.59 45.66 31.52 45.98 31.37Q46.46 31.14 46.73 30.85C46.95 30.59 47.04 30.31 47 30.01C46.95 29.7 46.83 29.43 46.64 29.21C46.44 29 46.19 28.86 45.89 28.81C45.57 28.75 45.27 28.83 44.96 29.06L44.82 29.2C44.78 29.23 44.72 29.26 44.64 29.28C44.52 29.31 44.36 29.28 44.15 29.18C43.94 29.08 43.75 28.94 43.56 28.76C43.27 28.49 42.98 28.39 42.7 28.46C42.42 28.53 42.15 28.69 41.89 28.96C41.75 29.11 41.61 29.21 41.45 29.28C41.29 29.33 41.15 29.35 41.01 29.35C40.88 29.34 40.76 29.31 40.67 29.25C40.57 29.18 40.52 29.1 40.51 29C40.5 28.9 40.53 28.81 40.59 28.71C40.64 28.61 40.72 28.52 40.82 28.45C40.93 28.36 41.05 28.3 41.2 28.25C41.34 28.19 41.5 28.17 41.67 28.17L45.61 28.17C45.96 28.17 46.32 28.09 46.7 27.93C47.06 27.77 47.37 27.56 47.61 27.31C47.83 27.06 47.96 26.79 48 26.5ZM109.57 31.23C109.79 30.99 109.9 30.7 109.9 30.37C109.9 30.21 109.88 30.06 109.82 29.92C109.77 29.77 109.69 29.64 109.57 29.53C109.47 29.4 109.34 29.3 109.18 29.23C109.03 29.16 108.84 29.12 108.62 29.12L105.93 29.12L105.93 28.51C105.93 28.11 105.81 27.8 105.56 27.56C105.3 27.32 104.92 27.2 104.42 27.2L102.61 27.2Q102.28 27.2 102.04 27.31C101.88 27.38 101.74 27.48 101.64 27.6C101.53 27.72 101.45 27.85 101.4 28C101.35 28.14 101.32 28.29 101.32 28.45C101.32 28.78 101.43 29.07 101.64 29.31C101.85 29.55 102.17 29.67 102.61 29.67L103.11 29.67L103.11 30.37C103.11 30.7 103.22 30.99 103.43 31.23C103.65 31.47 103.97 31.59 104.39 31.59L108.62 31.59C109.04 31.59 109.36 31.47 109.57 31.23ZM127.42 35.76C127.31 35.39 127.17 35.05 127 34.75L127.75 33.98C127.88 33.82 127.98 33.66 128.03 33.48C128.08 33.29 128.1 33.11 128.07 32.95C128.05 32.77 128 32.6 127.9 32.45C127.82 32.29 127.71 32.16 127.57 32.06C127.44 31.95 127.29 31.88 127.12 31.82C126.95 31.76 126.78 31.73 126.59 31.73C126.41 31.73 126.24 31.77 126.06 31.85C125.88 31.93 125.72 32.05 125.56 32.23L124.79 33.06C124.17 32.82 123.47 32.7 122.68 32.7Q121.68 32.7 120.86 32.93C120.31 33.08 119.84 33.29 119.42 33.56Q118.79 33.95 118.39 34.5C118.12 34.86 117.93 35.26 117.82 35.68Q117.69 36.13 117.82 36.49Q117.84 36.56 117.87 36.62C118.02 36.88 118.23 37.07 118.5 37.18C118.68 37.26 118.87 37.3 119.06 37.31C119.26 37.31 119.44 37.28 119.61 37.21C119.77 37.14 119.92 37.03 120.04 36.89C120.17 36.74 120.26 36.55 120.31 36.32C120.35 36.14 120.44 35.97 120.59 35.82C120.74 35.68 120.91 35.55 121.12 35.45C121.33 35.33 121.56 35.25 121.82 35.2Q121.94 35.17 122.06 35.15Q122.34 35.1 122.62 35.1C122.94 35.1 123.24 35.14 123.51 35.21C123.78 35.29 124.02 35.39 124.22 35.53C124.41 35.65 124.57 35.8 124.68 35.98C124.8 36.16 124.86 36.34 124.86 36.54Q124.86 36.77 124.77 36.96Q124.66 37.18 124.43 37.34C124.16 37.53 123.83 37.68 123.43 37.79Q122.84 37.95 122.17 38.03C121.72 38.08 121.32 38.13 120.98 38.18C120.5 38.26 120.02 38.39 119.54 38.57C119.07 38.76 118.65 39.02 118.28 39.34C117.9 39.66 117.6 40.06 117.36 40.54C117.13 41.02 117.01 41.59 117.01 42.25C117.01 43.04 117.17 43.7 117.48 44.25C117.79 44.78 118.18 45.19 118.64 45.5C119.11 45.79 119.61 45.97 120.15 46.04Q120.97 46.15 121.65 45.95Q122 45.85 122.22 45.67Q122.43 45.48 122.54 45.25C122.62 45.08 122.65 44.91 122.65 44.73C122.65 44.55 122.62 44.38 122.56 44.2C122.45 43.93 122.28 43.71 122.03 43.56C121.78 43.39 121.45 43.36 121.06 43.48C120.9 43.53 120.75 43.54 120.59 43.51C120.43 43.48 120.29 43.41 120.17 43.31C120.04 43.2 119.94 43.07 119.86 42.9C119.78 42.72 119.75 42.52 119.75 42.28C119.75 42.02 119.8 41.79 119.9 41.59Q119.96 41.49 120.02 41.4Q120.15 41.22 120.32 41.07C120.5 40.93 120.7 40.81 120.93 40.71C121.17 40.62 121.42 40.55 121.68 40.51C121.95 40.47 122.24 40.43 122.54 40.4C122.85 40.37 123.14 40.33 123.43 40.29C123.74 40.24 124.02 40.18 124.29 40.12C124.56 40.06 124.8 39.97 125.01 39.87L125.01 44.79C125.01 45.23 125.14 45.55 125.4 45.76C125.67 45.97 125.97 46.07 126.29 46.07C126.62 46.07 126.91 45.97 127.17 45.76C127.44 45.55 127.57 45.23 127.57 44.79L127.57 36.96C127.57 36.53 127.52 36.13 127.42 35.76ZM47.42 42.9C47.71 42.21 47.86 41.39 47.86 40.42C47.86 39.83 47.76 39.32 47.56 38.89Q47.26 38.21 46.86 37.76C46.58 37.45 46.31 37.2 46.03 37.01C45.76 36.82 45.54 36.69 45.39 36.6C45.5 36.53 45.61 36.46 45.71 36.39C45.83 36.31 45.94 36.23 46.06 36.15C46.25 36.01 46.44 35.84 46.65 35.65C46.87 35.46 47.07 35.25 47.25 35.01C47.54 34.63 47.68 34.27 47.68 33.95C47.69 33.61 47.58 33.33 47.34 33.09C47.23 32.98 47.09 32.9 46.95 32.82Q46.83 32.76 46.71 32.72Q46.6 32.69 46.48 32.68Q46.23 32.65 45.96 32.73C45.8 32.78 45.64 32.88 45.48 33.03C45.34 33.15 45.21 33.3 45.07 33.48C44.95 33.65 44.82 33.82 44.68 34.01C44.55 34.19 44.41 34.36 44.26 34.54C44.12 34.71 43.96 34.85 43.79 34.98C43.63 35.09 43.46 35.19 43.31 35.26C43.15 35.33 42.93 35.4 42.64 35.45C42.43 35.49 42.24 35.6 42.07 35.79C41.92 35.98 41.84 36.22 41.84 36.51Q41.84 36.73 41.92 36.93Q41.96 37.03 42.03 37.12C42.16 37.3 42.33 37.41 42.54 37.46C42.64 37.5 42.74 37.52 42.84 37.54C42.94 37.55 43.06 37.58 43.18 37.62C43.31 37.65 43.44 37.7 43.59 37.78C43.75 37.85 43.93 37.96 44.14 38.1C44.46 38.36 44.71 38.7 44.9 39.1C45.1 39.51 45.2 39.98 45.2 40.51C45.2 40.97 45.14 41.39 45.01 41.76C44.89 42.14 44.7 42.46 44.45 42.73C44.2 43 43.89 43.21 43.53 43.37C43.17 43.52 42.76 43.59 42.29 43.59L41.04 43.59L41.04 34.25C41.04 33.84 40.92 33.54 40.68 33.34C40.44 33.13 40.15 33.03 39.79 33.03L38.32 33.03C38.11 33.03 37.91 33.06 37.75 33.14C37.59 33.21 37.46 33.31 37.36 33.43C37.25 33.55 37.17 33.68 37.12 33.82C37.07 33.97 37.04 34.12 37.04 34.28C37.04 34.61 37.15 34.9 37.36 35.14C37.56 35.36 37.89 35.48 38.32 35.48L38.48 35.48L38.48 44.48Q38.48 44.84 38.63 45.11Q38.75 45.31 38.95 45.46C39.26 45.7 39.66 45.82 40.14 45.82L42.76 45.82C43.42 45.82 44.05 45.72 44.67 45.53C45.28 45.33 45.82 45.01 46.29 44.57C46.76 44.14 47.14 43.58 47.42 42.9ZM11.25 45.75C11.52 45.54 11.65 45.22 11.65 44.79L11.65 37.92C11.65 37.03 11.52 36.26 11.25 35.6C10.99 34.95 10.62 34.41 10.15 33.98C9.68 33.55 9.13 33.23 8.5 33.03Q7.54 32.7 6.43 32.7C5.81 32.7 5.21 32.79 4.64 32.96C4.07 33.14 3.56 33.4 3.11 33.73Q2.9 33.88 2.72 34.05Q2.29 34.45 1.96 34.95Q1.91 35.03 1.87 35.11Q1.48 35.75 1.34 36.54C1.32 36.7 1.36 36.85 1.46 37Q1.55 37.1 1.64 37.19Q1.74 37.28 1.84 37.37C1.98 37.48 2.1 37.58 2.21 37.67Q2.4 37.79 2.4 37.85C2.4 37.91 2.35 37.97 2.25 38.06C2.14 38.14 2.03 38.25 1.9 38.37Q1.71 38.56 1.56 38.79C1.45 38.94 1.4 39.1 1.4 39.29L1.4 44.79C1.4 45.22 1.53 45.54 1.79 45.75C2.06 45.94 2.36 46.04 2.68 46.04C3.01 46.04 3.3 45.94 3.56 45.75C3.83 45.54 3.96 45.22 3.96 44.79L3.96 39.45C3.96 39.23 4.02 39.03 4.12 38.85C4.24 38.68 4.36 38.52 4.5 38.37C4.63 38.22 4.75 38.09 4.86 37.98C4.97 37.86 5.03 37.76 5.03 37.67C5.03 37.56 4.97 37.45 4.86 37.32C4.75 37.19 4.63 37.06 4.5 36.93Q4.31 36.73 4.15 36.56C4.05 36.43 4.01 36.32 4.03 36.23C4.17 35.85 4.45 35.54 4.87 35.29Q5.5 34.92 6.43 34.92C6.79 34.92 7.13 34.98 7.45 35.12Q7.69 35.21 7.9 35.35Q8.11 35.5 8.29 35.68C8.54 35.92 8.74 36.21 8.87 36.56C9.02 36.9 9.09 37.29 9.09 37.73L9.09 44.79C9.09 45.22 9.22 45.54 9.48 45.75C9.75 45.94 10.05 46.04 10.37 46.04C10.69 46.04 10.99 45.94 11.25 45.75ZM31.21 43.62C31.48 43.08 31.61 42.47 31.61 41.79C31.61 41.09 31.46 40.51 31.17 40.03C30.89 39.55 30.52 39.16 30.06 38.85C29.61 38.54 29.11 38.31 28.54 38.15Q27.71 37.92 26.9 37.82C26.63 37.79 26.34 37.75 26.04 37.7Q25.59 37.62 25.2 37.46C24.95 37.35 24.74 37.21 24.57 37.04C24.42 36.86 24.35 36.64 24.37 36.35C24.38 36.16 24.45 35.98 24.57 35.82C24.7 35.67 24.86 35.54 25.04 35.43C25.23 35.33 25.44 35.25 25.67 35.2C25.9 35.14 26.13 35.1 26.36 35.1Q26.83 35.1 27.27 35.23Q27.5 35.29 27.71 35.39C28.15 35.56 28.46 35.82 28.65 36.17C28.85 36.5 29.1 36.72 29.4 36.84C29.71 36.94 30.05 36.91 30.42 36.73C30.55 36.67 30.68 36.58 30.79 36.46C30.91 36.35 31 36.21 31.06 36.06C31.12 35.9 31.15 35.73 31.15 35.56C31.15 35.37 31.1 35.18 31 34.98C30.8 34.57 30.54 34.23 30.21 33.95C29.89 33.66 29.53 33.42 29.12 33.25C28.71 33.06 28.27 32.92 27.79 32.84C27.31 32.75 26.82 32.7 26.32 32.7Q25.57 32.7 24.87 32.89Q24.73 32.93 24.59 32.98C24.04 33.17 23.55 33.43 23.12 33.76C22.7 34.08 22.37 34.47 22.11 34.92C21.84 35.36 21.7 35.84 21.68 36.35C21.65 37.05 21.78 37.63 22.06 38.07C22.34 38.52 22.7 38.89 23.15 39.17Q23.84 39.57 24.65 39.78Q25.46 39.96 26.2 40.06C26.46 40.09 26.75 40.15 27.07 40.23C27.4 40.31 27.69 40.43 27.96 40.57C28.25 40.72 28.48 40.9 28.67 41.12Q28.76 41.23 28.82 41.35Q28.95 41.6 28.95 41.92Q28.95 42.29 28.8 42.59Q28.77 42.65 28.73 42.71C28.58 42.94 28.39 43.14 28.15 43.29C27.92 43.45 27.65 43.57 27.34 43.65C27.03 43.73 26.71 43.78 26.39 43.78C26.05 43.78 25.75 43.74 25.46 43.67C25.18 43.58 24.94 43.47 24.73 43.34C24.52 43.2 24.36 43.05 24.23 42.89Q24.07 42.65 24.05 42.41Q24.04 42.39 24.04 42.37C24.01 41.98 23.9 41.7 23.71 41.51C23.54 41.31 23.23 41.21 22.79 41.21C22.63 41.21 22.46 41.25 22.29 41.31C22.13 41.37 21.98 41.46 21.86 41.59C21.73 41.7 21.63 41.85 21.56 42.03C21.49 42.2 21.46 42.4 21.48 42.62C21.51 43.08 21.65 43.52 21.9 43.95Q22.29 44.57 22.93 45.07C23.36 45.4 23.87 45.65 24.45 45.84C25.04 46.04 25.69 46.14 26.39 46.14C27.15 46.14 27.84 46.04 28.48 45.84C29.13 45.64 29.68 45.35 30.14 44.98Q30.56 44.64 30.87 44.21Q31.07 43.93 31.21 43.62ZM35.51 45.82C35.78 45.63 35.92 45.33 35.92 44.93L35.92 33.92C35.92 33.52 35.78 33.22 35.51 33.01C35.25 32.8 34.96 32.7 34.64 32.7C34.31 32.7 34.02 32.8 33.75 33.01C33.49 33.22 33.36 33.52 33.36 33.92L33.36 44.93C33.36 45.33 33.49 45.63 33.75 45.82C34.02 46.03 34.31 46.14 34.64 46.14C34.96 46.14 35.25 46.03 35.51 45.82ZM59.15 45.75C59.42 45.54 59.56 45.23 59.56 44.84L59.56 37.6C59.56 36.84 59.43 36.16 59.17 35.56C58.92 34.94 58.56 34.43 58.11 34.01C57.65 33.58 57.11 33.26 56.48 33.04C55.86 32.81 55.17 32.7 54.43 32.7C53.69 32.7 53.01 32.81 52.39 33.04C51.76 33.26 51.22 33.58 50.76 34.01C50.31 34.43 49.96 34.94 49.7 35.56C49.44 36.16 49.31 36.84 49.31 37.6L49.31 44.84C49.31 45.23 49.44 45.54 49.7 45.75C49.97 45.94 50.27 46.04 50.59 46.04C50.91 46.04 51.2 45.94 51.46 45.75C51.74 45.54 51.87 45.23 51.87 44.84L51.87 40.51L54.31 40.51C54.74 40.51 55.05 40.39 55.26 40.14Q55.51 39.84 55.57 39.52Q55.59 39.41 55.59 39.29C55.59 38.99 55.48 38.71 55.26 38.46C55.05 38.2 54.74 38.07 54.31 38.07L51.87 38.07L51.87 37.37C51.87 36.62 52.09 36.03 52.54 35.59C52.99 35.14 53.62 34.92 54.43 34.92C55.25 34.92 55.88 35.14 56.32 35.59C56.77 36.03 57 36.62 57 37.37L57 44.84C57 45.23 57.13 45.54 57.39 45.75C57.66 45.94 57.95 46.04 58.28 46.04C58.6 46.04 58.89 45.94 59.15 45.75ZM71.31 45.75C71.58 45.54 71.71 45.22 71.71 44.79L71.71 37.92C71.71 37.03 71.58 36.26 71.31 35.6C71.05 34.95 70.68 34.41 70.21 33.98C69.75 33.55 69.19 33.23 68.56 33.03Q67.61 32.7 66.5 32.7C65.87 32.7 65.27 32.79 64.7 32.96C64.14 33.14 63.63 33.4 63.17 33.73C62.72 34.06 62.34 34.47 62.03 34.95C61.71 35.42 61.51 35.95 61.4 36.54C61.38 36.7 61.42 36.85 61.53 37Q61.61 37.1 61.71 37.19Q61.8 37.28 61.9 37.37C62.04 37.48 62.16 37.58 62.28 37.67Q62.46 37.79 62.46 37.85C62.46 37.91 62.41 37.97 62.31 38.06C62.2 38.14 62.09 38.25 61.96 38.37C61.84 38.5 61.73 38.64 61.62 38.79C61.52 38.94 61.46 39.1 61.46 39.29L61.46 44.79C61.46 45.22 61.59 45.54 61.86 45.75C62.13 45.94 62.42 46.04 62.75 46.04C63.07 46.04 63.36 45.94 63.62 45.75C63.89 45.54 64.03 45.22 64.03 44.79L64.03 39.45C64.03 39.23 64.08 39.03 64.18 38.85C64.3 38.68 64.42 38.52 64.56 38.37C64.69 38.22 64.81 38.09 64.92 37.98C65.03 37.86 65.09 37.76 65.09 37.67C65.09 37.56 65.03 37.45 64.92 37.32C64.81 37.19 64.69 37.06 64.56 36.93C64.43 36.8 64.32 36.67 64.21 36.56C64.11 36.43 64.07 36.32 64.09 36.23C64.24 35.85 64.52 35.54 64.93 35.29C65.35 35.04 65.87 34.92 66.5 34.92C66.85 34.92 67.19 34.98 67.51 35.12Q67.75 35.21 67.96 35.35Q68.18 35.5 68.36 35.68C68.61 35.92 68.8 36.21 68.93 36.56C69.08 36.9 69.15 37.29 69.15 37.73L69.15 44.79C69.15 45.22 69.28 45.54 69.54 45.75C69.81 45.94 70.11 46.04 70.43 46.04C70.76 46.04 71.05 45.94 71.31 45.75ZM91.28 43.62C91.54 43.08 91.67 42.47 91.67 41.79C91.67 41.09 91.52 40.51 91.23 40.03C90.95 39.55 90.58 39.16 90.12 38.85C89.67 38.54 89.17 38.31 88.61 38.15Q87.78 37.92 86.96 37.82C86.69 37.79 86.41 37.75 86.11 37.7Q85.65 37.62 85.26 37.46C85.01 37.35 84.8 37.21 84.64 37.04C84.48 36.86 84.41 36.64 84.43 36.35C84.44 36.16 84.51 35.98 84.64 35.82C84.76 35.67 84.92 35.54 85.11 35.43C85.29 35.33 85.5 35.25 85.73 35.2C85.96 35.14 86.19 35.1 86.42 35.1Q86.89 35.1 87.33 35.23Q87.56 35.29 87.78 35.39C88.21 35.56 88.53 35.82 88.71 36.17C88.91 36.5 89.16 36.72 89.46 36.84C89.78 36.94 90.12 36.91 90.48 36.73C90.62 36.67 90.74 36.58 90.86 36.46C90.97 36.35 91.06 36.21 91.12 36.06C91.18 35.9 91.21 35.73 91.21 35.56C91.21 35.37 91.16 35.18 91.06 34.98C90.86 34.57 90.6 34.23 90.28 33.95C89.95 33.66 89.59 33.42 89.18 33.25C88.78 33.06 88.33 32.92 87.86 32.84C87.38 32.75 86.89 32.7 86.39 32.7Q85.63 32.7 84.93 32.89Q84.79 32.93 84.65 32.98C84.1 33.17 83.61 33.43 83.18 33.76C82.77 34.08 82.43 34.47 82.17 34.92C81.91 35.36 81.77 35.84 81.75 36.35C81.71 37.05 81.84 37.63 82.12 38.07C82.4 38.52 82.77 38.89 83.21 39.17Q83.9 39.57 84.71 39.78Q85.53 39.96 86.26 40.06C86.52 40.09 86.81 40.15 87.14 40.23C87.46 40.31 87.76 40.43 88.03 40.57C88.31 40.72 88.54 40.9 88.73 41.12Q88.82 41.23 88.89 41.35Q89.01 41.6 89.01 41.92C89.01 42.22 88.94 42.48 88.79 42.71C88.65 42.94 88.45 43.14 88.21 43.29C87.99 43.45 87.71 43.57 87.4 43.65C87.09 43.73 86.77 43.78 86.45 43.78C86.12 43.78 85.81 43.74 85.53 43.67C85.25 43.58 85 43.47 84.79 43.34C84.58 43.2 84.42 43.05 84.29 42.89Q84.13 42.65 84.11 42.41Q84.11 42.39 84.11 42.37C84.07 41.98 83.96 41.7 83.78 41.51C83.6 41.31 83.29 41.21 82.86 41.21C82.69 41.21 82.52 41.25 82.36 41.31C82.19 41.37 82.04 41.46 81.92 41.59C81.79 41.7 81.69 41.85 81.62 42.03C81.55 42.2 81.52 42.4 81.54 42.62C81.57 43.08 81.71 43.52 81.96 43.95Q82.36 44.57 83 45.07C83.42 45.4 83.93 45.65 84.51 45.84C85.11 46.04 85.75 46.14 86.45 46.14C87.21 46.14 87.91 46.04 88.54 45.84C89.19 45.64 89.74 45.35 90.2 44.98Q90.63 44.64 90.93 44.21Q91.13 43.93 91.28 43.62ZM95.57 45.82C95.84 45.63 95.98 45.33 95.98 44.93L95.98 33.92C95.98 33.52 95.84 33.22 95.57 33.01C95.31 32.8 95.02 32.7 94.7 32.7C94.38 32.7 94.08 32.8 93.81 33.01C93.55 33.22 93.42 33.52 93.42 33.92L93.42 44.93C93.42 45.33 93.55 45.63 93.81 45.82C94.08 46.03 94.38 46.14 94.7 46.14C95.02 46.14 95.31 46.03 95.57 45.82ZM139.36 44.2C139.89 43.59 140.3 42.89 140.59 42.07C140.88 41.25 141.03 40.36 141.03 39.42C141.03 38.48 140.88 37.6 140.57 36.79C140.28 35.97 139.87 35.26 139.32 34.65C138.79 34.05 138.16 33.57 137.42 33.23C136.68 32.88 135.87 32.7 134.98 32.7C134.3 32.7 133.67 32.78 133.09 32.95C132.51 33.1 131.98 33.33 131.51 33.62Q130.81 34.06 130.29 34.65C129.96 35.04 129.69 35.46 129.5 35.93C129.35 36.29 129.34 36.61 129.47 36.92C129.59 37.22 129.78 37.43 130.04 37.54C130.21 37.63 130.38 37.68 130.56 37.71C130.75 37.73 130.93 37.72 131.11 37.68C131.28 37.64 131.44 37.56 131.59 37.45Q131.82 37.26 131.97 36.93C132.07 36.7 132.21 36.48 132.39 36.26C132.56 36.03 132.78 35.83 133.03 35.67C133.28 35.5 133.56 35.36 133.87 35.26C134.19 35.16 134.54 35.1 134.92 35.1C135.45 35.1 135.93 35.23 136.36 35.48C136.78 35.72 137.14 36.04 137.43 36.45C137.73 36.85 137.95 37.32 138.11 37.84C138.26 38.35 138.34 38.88 138.34 39.42C138.34 39.97 138.26 40.51 138.11 41.03C137.96 41.55 137.74 42.01 137.45 42.42C137.17 42.81 136.81 43.14 136.39 43.39C135.96 43.63 135.47 43.75 134.92 43.75C134.48 43.75 134.08 43.67 133.72 43.51C133.35 43.35 133.03 43.14 132.75 42.87C132.48 42.6 132.25 42.28 132.06 41.92C131.87 41.55 131.74 41.17 131.65 40.76L133.47 40.76C133.87 40.76 134.17 40.63 134.37 40.37C134.58 40.1 134.68 39.8 134.68 39.48C134.68 39.17 134.58 38.88 134.37 38.62C134.17 38.35 133.87 38.21 133.47 38.21L130.75 38.21C130.44 38.21 130.16 38.27 129.9 38.39C129.65 38.5 129.44 38.67 129.26 38.89C129.1 39.1 128.98 39.38 128.9 39.7C128.84 40.01 128.84 40.38 128.9 40.79C129.01 41.51 129.22 42.2 129.54 42.85C129.88 43.5 130.3 44.07 130.81 44.56C131.33 45.04 131.93 45.42 132.62 45.71Q133.67 46.14 134.92 46.14C135.84 46.14 136.67 45.96 137.42 45.62C138.18 45.28 138.82 44.8 139.36 44.2ZM175.86 44.2C176.39 43.59 176.8 42.89 177.09 42.07C177.38 41.25 177.53 40.36 177.53 39.42C177.53 38.48 177.38 37.6 177.07 36.79C176.78 35.97 176.37 35.26 175.82 34.65C175.29 34.05 174.66 33.57 173.92 33.23C173.18 32.88 172.37 32.7 171.48 32.7C170.8 32.7 170.17 32.78 169.59 32.95C169.01 33.1 168.48 33.33 168.01 33.62Q167.31 34.06 166.79 34.65C166.46 35.04 166.19 35.46 166 35.93C165.85 36.29 165.84 36.61 165.97 36.92C166.09 37.22 166.28 37.43 166.54 37.54C166.71 37.63 166.88 37.68 167.06 37.71C167.25 37.73 167.43 37.72 167.61 37.68C167.78 37.64 167.94 37.56 168.09 37.45Q168.32 37.26 168.47 36.93C168.57 36.7 168.71 36.48 168.89 36.26C169.06 36.03 169.28 35.83 169.53 35.67C169.78 35.5 170.06 35.36 170.37 35.26C170.69 35.16 171.04 35.1 171.42 35.1C171.95 35.1 172.43 35.23 172.86 35.48C173.28 35.72 173.64 36.04 173.93 36.45C174.23 36.85 174.45 37.32 174.61 37.84C174.76 38.35 174.84 38.88 174.84 39.42C174.84 39.97 174.76 40.51 174.61 41.03C174.46 41.55 174.24 42.01 173.95 42.42C173.67 42.81 173.31 43.14 172.89 43.39C172.46 43.63 171.97 43.75 171.42 43.75C170.98 43.75 170.58 43.67 170.22 43.51C169.85 43.35 169.53 43.14 169.25 42.87C168.98 42.6 168.75 42.28 168.56 41.92C168.37 41.55 168.24 41.17 168.15 40.76L169.97 40.76C170.37 40.76 170.67 40.63 170.87 40.37C171.08 40.1 171.18 39.8 171.18 39.48C171.18 39.17 171.08 38.88 170.87 38.62C170.67 38.35 170.37 38.21 169.97 38.21L167.25 38.21C166.94 38.21 166.66 38.27 166.4 38.39C166.15 38.5 165.94 38.67 165.76 38.89C165.6 39.1 165.48 39.38 165.4 39.7C165.34 40.01 165.34 40.38 165.4 40.79C165.51 41.51 165.72 42.2 166.04 42.85C166.38 43.5 166.8 44.07 167.31 44.56C167.83 45.04 168.43 45.42 169.12 45.71Q170.17 46.14 171.42 46.14C172.34 46.14 173.17 45.96 173.92 45.62C174.68 45.28 175.32 44.8 175.86 44.2ZM200.03 45.75C200.3 45.54 200.43 45.23 200.43 44.84L200.43 37.6C200.43 36.84 200.3 36.16 200.04 35.56C199.79 34.94 199.44 34.43 198.98 34.01C198.52 33.58 197.98 33.26 197.36 33.04C196.73 32.81 196.05 32.7 195.31 32.7C194.57 32.7 193.89 32.81 193.26 33.04C192.64 33.26 192.1 33.58 191.64 34.01C191.19 34.43 190.84 34.94 190.57 35.56C190.31 36.16 190.18 36.84 190.18 37.6L190.18 44.84C190.18 45.23 190.31 45.54 190.57 45.75C190.85 45.94 191.14 46.04 191.47 46.04C191.79 46.04 192.08 45.94 192.34 45.75C192.61 45.54 192.75 45.23 192.75 44.84L192.75 40.51L195.18 40.51C195.61 40.51 195.93 40.39 196.14 40.14Q196.38 39.84 196.44 39.52Q196.47 39.41 196.47 39.29C196.47 38.99 196.36 38.71 196.14 38.46C195.93 38.2 195.61 38.07 195.18 38.07L192.75 38.07L192.75 37.37C192.75 36.62 192.97 36.03 193.42 35.59C193.87 35.14 194.5 34.92 195.31 34.92C196.12 34.92 196.75 35.14 197.2 35.59C197.65 36.03 197.87 36.62 197.87 37.37L197.87 44.84C197.87 45.23 198 45.54 198.26 45.75C198.53 45.94 198.83 46.04 199.15 46.04C199.48 46.04 199.77 45.94 200.03 45.75ZM220.76 44.9C220.88 44.68 220.93 44.45 220.93 44.2C220.93 43.82 220.81 43.48 220.57 43.18C220.34 42.87 220.02 42.64 219.62 42.5L219.62 33.92C219.62 33.52 219.49 33.22 219.22 33.01C218.95 32.8 218.66 32.7 218.34 32.7C218.02 32.7 217.73 32.8 217.47 33.01C217.2 33.22 217.07 33.52 217.07 33.92L217.07 41.6C217.07 41.94 217 42.24 216.84 42.51C216.69 42.77 216.51 43 216.28 43.2C216.05 43.4 215.79 43.55 215.51 43.65C215.24 43.76 214.98 43.81 214.73 43.81C214.44 43.81 214.16 43.77 213.9 43.68C213.64 43.59 213.41 43.45 213.22 43.28C213.03 43.1 212.88 42.88 212.76 42.62C212.65 42.36 212.59 42.05 212.59 41.7L212.59 37.92C212.59 37.03 212.45 36.26 212.18 35.6C211.92 34.95 211.56 34.41 211.09 33.98C210.62 33.55 210.07 33.23 209.43 33.03Q208.48 32.7 207.37 32.7C206.75 32.7 206.15 32.79 205.57 32.96C205.01 33.14 204.5 33.4 204.04 33.73C203.6 34.06 203.22 34.47 202.9 34.95C202.59 35.42 202.38 35.95 202.28 36.54C202.26 36.7 202.3 36.85 202.4 37Q202.49 37.1 202.58 37.19Q202.68 37.28 202.78 37.37C202.91 37.48 203.04 37.58 203.15 37.67Q203.34 37.79 203.34 37.85C203.34 37.91 203.29 37.97 203.18 38.06C203.08 38.14 202.97 38.25 202.84 38.37C202.72 38.5 202.6 38.64 202.5 38.79C202.39 38.94 202.34 39.1 202.34 39.29L202.34 44.26C202.34 44.73 202.48 45.11 202.75 45.4Q203.17 45.82 204.01 45.82L205.7 45.82C205.92 45.82 206.11 45.79 206.26 45.71C206.43 45.64 206.56 45.55 206.67 45.43C206.77 45.31 206.85 45.17 206.9 45.03C206.95 44.88 206.98 44.73 206.98 44.57C206.98 44.24 206.88 43.95 206.67 43.71C206.46 43.47 206.14 43.35 205.7 43.35L204.9 43.35L204.9 39.45C204.9 39.23 204.95 39.03 205.06 38.85C205.17 38.68 205.3 38.52 205.43 38.37C205.57 38.22 205.69 38.09 205.79 37.98C205.91 37.86 205.97 37.76 205.97 37.67C205.97 37.56 205.91 37.45 205.79 37.32C205.69 37.19 205.57 37.06 205.43 36.93C205.31 36.8 205.19 36.67 205.09 36.56C204.99 36.43 204.94 36.32 204.97 36.23Q204.98 36.18 205 36.14Q205.24 35.64 205.81 35.29C206.23 35.04 206.75 34.92 207.37 34.92C207.73 34.92 208.06 34.98 208.39 35.12Q208.63 35.21 208.84 35.35Q209.05 35.5 209.23 35.68C209.48 35.92 209.67 36.21 209.81 36.56C209.95 36.9 210.03 37.29 210.03 37.73L210.03 41.76Q210.03 42.84 210.36 43.64C210.59 44.17 210.89 44.61 211.26 44.96C211.65 45.32 212.09 45.58 212.59 45.76C213.09 45.93 213.62 46.01 214.18 46.01C214.81 46.01 215.35 45.91 215.79 45.71C216.24 45.52 216.61 45.27 216.9 44.96C217.08 45.27 217.34 45.52 217.68 45.71C218.03 45.91 218.41 46.01 218.82 46.01C219.12 46.01 219.39 45.96 219.64 45.85C219.9 45.76 220.12 45.64 220.31 45.48C220.51 45.31 220.66 45.12 220.76 44.9ZM231.87 45.75C232.14 45.54 232.28 45.23 232.28 44.84L232.28 37.6C232.28 36.84 232.15 36.16 231.89 35.56C231.64 34.94 231.28 34.43 230.82 34.01C230.37 33.58 229.82 33.26 229.2 33.04C228.57 32.81 227.89 32.7 227.15 32.7C226.41 32.7 225.73 32.81 225.11 33.04C224.48 33.26 223.94 33.58 223.48 34.01C223.03 34.43 222.68 34.94 222.42 35.56C222.16 36.16 222.03 36.84 222.03 37.6L222.03 44.84C222.03 45.23 222.16 45.54 222.42 45.75C222.69 45.94 222.99 46.04 223.31 46.04C223.63 46.04 223.92 45.94 224.18 45.75C224.45 45.54 224.59 45.23 224.59 44.84L224.59 40.51L227.03 40.51C227.45 40.51 227.77 40.39 227.98 40.14Q228.23 39.84 228.29 39.52Q228.31 39.41 228.31 39.29C228.31 38.99 228.2 38.71 227.98 38.46C227.77 38.2 227.45 38.07 227.03 38.07L224.59 38.07L224.59 37.37C224.59 36.62 224.81 36.03 225.26 35.59C225.71 35.14 226.34 34.92 227.15 34.92C227.97 34.92 228.6 35.14 229.04 35.59C229.49 36.03 229.72 36.62 229.72 37.37L229.72 44.84C229.72 45.23 229.85 45.54 230.11 45.75C230.38 45.94 230.67 46.04 231 46.04C231.32 46.04 231.61 45.94 231.87 45.75ZM243.28 43.62C243.54 43.08 243.67 42.47 243.67 41.79C243.67 41.09 243.52 40.51 243.23 40.03C242.95 39.55 242.58 39.16 242.12 38.85C241.67 38.54 241.17 38.31 240.61 38.15Q239.78 37.92 238.97 37.82C238.69 37.79 238.41 37.75 238.11 37.7Q237.65 37.62 237.26 37.46C237.01 37.35 236.8 37.21 236.64 37.04C236.48 36.86 236.41 36.64 236.43 36.35C236.44 36.16 236.51 35.98 236.64 35.82C236.76 35.67 236.92 35.54 237.11 35.43C237.29 35.33 237.5 35.25 237.73 35.2C237.96 35.14 238.19 35.1 238.42 35.1Q238.89 35.1 239.33 35.23Q239.56 35.29 239.78 35.39C240.22 35.56 240.53 35.82 240.72 36.17C240.91 36.5 241.16 36.72 241.47 36.84C241.78 36.94 242.12 36.91 242.48 36.73C242.62 36.67 242.74 36.58 242.86 36.46C242.97 36.35 243.06 36.21 243.12 36.06C243.18 35.9 243.22 35.73 243.22 35.56C243.22 35.37 243.16 35.18 243.06 34.98C242.86 34.57 242.6 34.23 242.28 33.95C241.95 33.66 241.59 33.42 241.18 33.25C240.78 33.06 240.34 32.92 239.86 32.84C239.38 32.75 238.89 32.7 238.39 32.7Q237.63 32.7 236.93 32.89Q236.79 32.93 236.65 32.98C236.1 33.17 235.61 33.43 235.18 33.76C234.77 34.08 234.43 34.47 234.17 34.92C233.91 35.36 233.77 35.84 233.75 36.35C233.72 37.05 233.84 37.63 234.12 38.07C234.4 38.52 234.77 38.89 235.22 39.17Q235.9 39.57 236.72 39.78Q237.53 39.96 238.26 40.06C238.52 40.09 238.81 40.15 239.14 40.23C239.46 40.31 239.76 40.43 240.03 40.57C240.31 40.72 240.54 40.9 240.73 41.12Q240.82 41.23 240.89 41.35Q241.01 41.6 241.01 41.92C241.01 42.22 240.94 42.48 240.79 42.71C240.65 42.94 240.45 43.14 240.22 43.29C239.99 43.45 239.72 43.57 239.4 43.65C239.09 43.73 238.77 43.78 238.45 43.78C238.12 43.78 237.81 43.74 237.53 43.67C237.25 43.58 237 43.47 236.79 43.34C236.59 43.2 236.42 43.05 236.29 42.89Q236.13 42.65 236.11 42.41Q236.11 42.39 236.11 42.37C236.07 41.98 235.97 41.7 235.78 41.51C235.6 41.31 235.29 41.21 234.86 41.21C234.69 41.21 234.52 41.25 234.36 41.31C234.19 41.37 234.04 41.46 233.92 41.59C233.79 41.7 233.69 41.85 233.62 42.03C233.55 42.2 233.52 42.4 233.54 42.62C233.57 43.08 233.72 43.52 233.97 43.95Q234.36 44.57 235 45.07C235.42 45.4 235.93 45.65 236.51 45.84C237.11 46.04 237.75 46.14 238.45 46.14C239.21 46.14 239.91 46.04 240.54 45.84C241.19 45.64 241.74 45.35 242.2 44.98Q242.63 44.64 242.93 44.21Q243.13 43.93 243.28 43.62ZM19.79 45.82C20.05 45.6 20.18 45.29 20.18 44.87L20.18 37.25Q20.18 36.25 19.86 35.42C19.64 34.86 19.33 34.39 18.93 34C18.55 33.6 18.08 33.3 17.53 33.09Q16.71 32.76 15.75 32.76Q14.86 32.76 14.31 32.95C13.94 33.07 13.66 33.19 13.46 33.31C13.08 33.52 12.84 33.79 12.76 34.12C12.68 34.44 12.7 34.74 12.82 35.01C12.96 35.31 13.19 35.54 13.51 35.68C13.84 35.82 14.24 35.78 14.68 35.56C14.78 35.51 14.91 35.45 15.07 35.4C15.25 35.35 15.48 35.32 15.75 35.32C16.03 35.32 16.28 35.38 16.51 35.5C16.74 35.6 16.94 35.75 17.11 35.93C17.27 36.12 17.4 36.34 17.5 36.6Q17.51 36.64 17.52 36.68Q17.64 37.02 17.64 37.4L17.64 44.87Q17.64 45.2 17.75 45.43C17.83 45.59 17.93 45.72 18.06 45.82Q18.14 45.89 18.22 45.94Q18.34 46.01 18.48 46.06C18.64 46.11 18.79 46.14 18.95 46.14C19.26 46.14 19.54 46.03 19.79 45.82ZM79.86 45.82C80.12 45.6 80.25 45.29 80.25 44.87L80.25 37.25Q80.25 36.25 79.92 35.42C79.7 34.86 79.39 34.39 79 34C78.61 33.6 78.14 33.3 77.59 33.09Q76.78 32.76 75.81 32.76C75.21 32.76 74.74 32.82 74.37 32.95C74.01 33.07 73.73 33.19 73.53 33.31C73.14 33.52 72.91 33.79 72.82 34.12C72.74 34.44 72.76 34.74 72.89 35.01C73.02 35.31 73.25 35.54 73.57 35.68C73.91 35.82 74.3 35.78 74.75 35.56C74.84 35.51 74.97 35.45 75.14 35.4C75.31 35.35 75.54 35.32 75.81 35.32C76.09 35.32 76.34 35.38 76.57 35.5C76.8 35.6 77 35.75 77.17 35.93C77.33 36.12 77.46 36.34 77.56 36.6Q77.57 36.64 77.59 36.68Q77.7 37.02 77.7 37.4L77.7 44.87C77.7 45.09 77.74 45.28 77.81 45.43C77.89 45.59 78 45.72 78.12 45.82Q78.2 45.89 78.28 45.94Q78.41 46.01 78.54 46.06C78.7 46.11 78.86 46.14 79.01 46.14C79.32 46.14 79.61 46.03 79.86 45.82ZM115.32 45.82C115.59 45.6 115.72 45.29 115.72 44.87L115.72 37.25Q115.72 36.25 115.39 35.42C115.17 34.86 114.86 34.39 114.47 34C114.08 33.6 113.61 33.3 113.06 33.09Q112.25 32.76 111.28 32.76C110.68 32.76 110.2 32.82 109.84 32.95C109.48 33.07 109.19 33.19 109 33.31C108.61 33.52 108.38 33.79 108.29 34.12C108.21 34.44 108.23 34.74 108.36 35.01C108.49 35.31 108.72 35.54 109.04 35.68C109.38 35.82 109.77 35.78 110.22 35.56C110.31 35.51 110.44 35.45 110.61 35.4C110.78 35.35 111.01 35.32 111.28 35.32C111.56 35.32 111.81 35.38 112.04 35.5C112.27 35.6 112.47 35.75 112.64 35.93C112.8 36.12 112.93 36.34 113.03 36.6Q113.04 36.64 113.05 36.68Q113.17 37.02 113.17 37.4L113.17 44.87C113.17 45.09 113.2 45.28 113.28 45.43C113.36 45.59 113.47 45.72 113.59 45.82Q113.67 45.89 113.75 45.94Q113.87 46.01 114.01 46.06C114.17 46.11 114.32 46.14 114.48 46.14C114.79 46.14 115.07 46.03 115.32 45.82ZM153.86 44.9C153.97 44.68 154.03 44.45 154.03 44.2C154.03 43.82 153.9 43.48 153.65 43.18C153.41 42.87 153.1 42.64 152.72 42.5L152.72 33.98C152.72 33.58 152.58 33.28 152.31 33.07C152.05 32.86 151.76 32.76 151.43 32.76C151.11 32.76 150.81 32.86 150.54 33.07C150.28 33.28 150.15 33.58 150.15 33.98L150.15 41.12C150.15 41.56 150.06 41.95 149.89 42.29Q149.69 42.69 149.39 42.99Q149.31 43.07 149.23 43.14C148.96 43.35 148.66 43.52 148.32 43.64C148 43.75 147.68 43.81 147.37 43.81C146.51 43.81 145.9 43.55 145.54 43.04Q145.03 42.28 145.03 40.84L145.03 33.98C145.03 33.58 144.89 33.28 144.62 33.07C144.36 32.86 144.07 32.76 143.75 32.76C143.42 32.76 143.13 32.86 142.86 33.07C142.6 33.28 142.47 33.58 142.47 33.98L142.47 41C142.47 41.9 142.59 42.68 142.82 43.32C143.07 43.97 143.4 44.5 143.81 44.9C144.23 45.31 144.7 45.6 145.25 45.79C145.79 45.98 146.36 46.07 146.95 46.07C148.09 46.07 149.1 45.7 150 44.96C150.17 45.27 150.43 45.52 150.76 45.71C151.1 45.91 151.48 46.01 151.92 46.01C152.2 46.01 152.47 45.96 152.72 45.85C152.98 45.76 153.2 45.64 153.39 45.48C153.59 45.31 153.74 45.12 153.86 44.9ZM188.36 42.17C188.61 41.34 188.73 40.42 188.73 39.39C188.73 38.24 188.59 37.26 188.29 36.43Q187.86 35.18 187.12 34.37C186.63 33.83 186.06 33.43 185.4 33.18C184.76 32.92 184.07 32.79 183.36 32.79C182.97 32.79 182.61 32.84 182.26 32.93C181.92 33.02 181.62 33.13 181.36 33.28C181.1 33.41 180.88 33.57 180.72 33.76C180.56 33.94 180.47 34.12 180.45 34.31C180.43 34.5 180.44 34.68 180.48 34.85C180.52 35.03 180.6 35.19 180.7 35.32C180.81 35.46 180.96 35.57 181.14 35.65C181.31 35.73 181.52 35.78 181.76 35.78C181.87 35.78 181.99 35.76 182.12 35.73C182.26 35.69 182.4 35.65 182.56 35.6C182.72 35.55 182.88 35.51 183.04 35.48C183.22 35.44 183.39 35.42 183.54 35.42C183.93 35.42 184.28 35.53 184.61 35.75C184.93 35.96 185.2 36.27 185.43 36.65C185.66 37.03 185.84 37.46 185.97 37.96C186.1 38.46 186.17 39 186.17 39.56C186.17 40.15 186.1 40.71 185.97 41.23C185.84 41.74 185.66 42.19 185.42 42.59C185.18 42.97 184.89 43.28 184.56 43.51C184.23 43.73 183.86 43.84 183.45 43.84L182.47 43.84L180.82 37.31C180.72 36.87 180.5 36.59 180.17 36.48C179.84 36.35 179.49 36.34 179.14 36.45C179 36.5 178.87 36.57 178.75 36.67C178.62 36.75 178.51 36.85 178.42 36.98C178.34 37.09 178.28 37.23 178.25 37.39C178.22 37.53 178.22 37.69 178.26 37.85L180 44.51Q180.11 44.96 180.32 45.26Q180.53 45.53 180.79 45.7Q180.82 45.72 180.84 45.73C181.05 45.83 181.28 45.91 181.53 45.95C181.78 45.99 182.04 46.01 182.32 46.01L183.39 46.01C184.21 46.01 184.95 45.86 185.61 45.56C186.27 45.26 186.84 44.82 187.29 44.26C187.75 43.69 188.11 42.99 188.36 42.17ZM106.86 43.76Q107.18 42.96 107.18 41.89L107.18 34.07C107.18 33.68 107.05 33.38 106.78 33.18C106.52 32.97 106.23 32.87 105.9 32.87C105.58 32.87 105.28 32.97 105.01 33.18C104.75 33.38 104.62 33.68 104.62 34.07L104.62 42.01C104.62 42.64 104.45 43.11 104.11 43.45C103.77 43.77 103.29 43.93 102.67 43.93C102.11 43.93 101.65 43.77 101.29 43.45C100.95 43.11 100.78 42.64 100.78 42.01L100.78 39.42C100.78 39.16 100.84 38.94 100.95 38.76C101.06 38.57 101.21 38.41 101.39 38.26Q101.65 38.03 101.95 37.79C102.15 37.64 102.33 37.45 102.5 37.25C102.66 37.03 102.8 36.77 102.9 36.46C103.01 36.16 103.05 35.78 103.03 35.32C103.02 34.98 102.95 34.67 102.82 34.39C102.7 34.09 102.53 33.84 102.32 33.64C102.12 33.43 101.87 33.27 101.59 33.15C101.32 33.04 101.03 32.98 100.72 33L99.06 33.03C98.63 33.05 98.31 33.19 98.11 33.46C97.91 33.72 97.81 34.02 97.81 34.34C97.81 34.69 97.91 35 98.11 35.26C98.31 35.51 98.63 35.62 99.06 35.59L99.89 35.53C100.1 35.51 100.23 35.56 100.29 35.7C100.37 35.83 100.39 35.97 100.37 36.12C100.35 36.3 100.28 36.45 100.17 36.59Q100 36.78 99.75 36.96C99.59 37.09 99.42 37.22 99.25 37.35C99.07 37.48 98.9 37.63 98.75 37.81C98.59 37.97 98.46 38.17 98.36 38.4C98.26 38.63 98.21 38.91 98.21 39.23L98.21 41.89Q98.21 42.96 98.54 43.76C98.77 44.29 99.08 44.73 99.48 45.09C99.88 45.44 100.35 45.7 100.89 45.87C101.43 46.05 102.02 46.14 102.67 46.14C103.34 46.14 103.94 46.05 104.5 45.87C105.06 45.7 105.54 45.44 105.93 45.09C106.33 44.73 106.64 44.29 106.86 43.76ZM163.76 43.76Q164.09 42.96 164.09 41.89L164.09 34.07C164.09 33.68 163.95 33.38 163.68 33.18C163.42 32.97 163.13 32.87 162.81 32.87C162.49 32.87 162.19 32.97 161.92 33.18C161.66 33.38 161.53 33.68 161.53 34.07L161.53 42.01C161.53 42.64 161.36 43.11 161.01 43.45C160.68 43.77 160.2 43.93 159.57 43.93C159.01 43.93 158.55 43.77 158.2 43.45C157.86 43.11 157.68 42.64 157.68 42.01L157.68 39.42C157.68 39.16 157.74 38.94 157.86 38.76C157.97 38.57 158.12 38.41 158.29 38.26Q158.56 38.03 158.86 37.79C159.05 37.64 159.24 37.45 159.4 37.25C159.57 37.03 159.7 36.77 159.81 36.46C159.91 36.16 159.95 35.78 159.93 35.32C159.92 34.98 159.86 34.67 159.73 34.39C159.61 34.09 159.44 33.84 159.23 33.64C159.02 33.43 158.78 33.27 158.5 33.15C158.23 33.04 157.93 32.98 157.62 33L155.97 33.03C155.54 33.05 155.22 33.19 155.01 33.46C154.81 33.72 154.72 34.02 154.72 34.34C154.72 34.69 154.81 35 155.01 35.26C155.22 35.51 155.54 35.62 155.97 35.59L156.79 35.53C157 35.51 157.14 35.56 157.2 35.7C157.27 35.83 157.3 35.97 157.28 36.12C157.26 36.3 157.19 36.45 157.07 36.59Q156.9 36.78 156.65 36.96C156.5 37.09 156.33 37.22 156.15 37.35C155.98 37.48 155.81 37.63 155.65 37.81C155.5 37.97 155.37 38.17 155.26 38.4C155.17 38.63 155.12 38.91 155.12 39.23L155.12 41.89Q155.12 42.96 155.45 43.76C155.68 44.29 155.99 44.73 156.39 45.09C156.78 45.44 157.25 45.7 157.79 45.87C158.34 46.05 158.93 46.14 159.57 46.14C160.24 46.14 160.85 46.05 161.4 45.87C161.97 45.7 162.44 45.44 162.84 45.09C163.24 44.73 163.54 44.29 163.76 43.76ZM242.92 50.67C243.1 50.39 243.18 50.05 243.18 49.67L243.18 47.87C243.18 47.47 243.05 47.17 242.79 46.96C242.52 46.76 242.23 46.65 241.9 46.65C241.58 46.65 241.29 46.76 241.03 46.96C240.76 47.17 240.62 47.47 240.62 47.87L240.62 49.28C240.62 49.64 240.46 49.82 240.14 49.82C239.81 49.82 239.65 49.64 239.65 49.28L239.65 48.03C239.65 47.69 239.55 47.4 239.34 47.15C239.13 46.9 238.81 46.78 238.37 46.78L236.93 46.78C236.5 46.78 236.17 46.9 235.97 47.15C235.76 47.41 235.65 47.7 235.65 48.03C235.65 48.36 235.76 48.65 235.98 48.89C236.2 49.13 236.52 49.25 236.93 49.25L237.09 49.25L237.09 49.67C237.09 50.05 237.18 50.39 237.36 50.67C237.53 50.95 237.77 51.18 238.06 51.35C238.35 51.54 238.68 51.68 239.04 51.76C239.41 51.85 239.77 51.9 240.14 51.9C240.5 51.9 240.87 51.85 241.23 51.76C241.6 51.68 241.92 51.54 242.22 51.35C242.5 51.18 242.73 50.95 242.92 50.67ZM200.04 51.59C200.3 51.38 200.43 51.07 200.43 50.65L200.43 48.03C200.43 47.69 200.33 47.4 200.12 47.15C199.91 46.9 199.59 46.78 199.15 46.78L197.54 46.78C197.11 46.78 196.78 46.9 196.57 47.15C196.37 47.41 196.26 47.7 196.26 48.03C196.26 48.36 196.37 48.65 196.59 48.89C196.81 49.13 197.13 49.25 197.54 49.25L197.87 49.25L197.87 50.65C197.87 51.07 198.01 51.38 198.28 51.59C198.54 51.8 198.83 51.9 199.15 51.9C199.48 51.9 199.77 51.8 200.04 51.59Z" fill="#5B5B5B" fill-opacity="1.000000" fill-rule="evenodd"/>
</svg>
