<svg width="40.925781" height="37.629028" viewBox="0 0 40.9258 37.629" fill="none" xmlns="http://www.w3.org/2000/svg" xmlns:xlink="http://www.w3.org/1999/xlink">
	<desc>
			Created with Pixso.
	</desc>
	<defs/>
	<path id="Vector" d="M22.39 0.79C21.88 0.28 21.18 0 20.46 0C19.73 0 19.04 0.28 18.53 0.79L0.4 18.93C0.27 19.05 0.17 19.2 0.1 19.37C0.03 19.53 0 19.71 0 19.89C0 20.07 0.03 20.25 0.1 20.41C0.17 20.58 0.27 20.73 0.4 20.86C0.65 21.11 1 21.26 1.36 21.26C1.54 21.26 1.72 21.22 1.88 21.15C2.05 21.08 2.2 20.98 2.33 20.86L20.46 2.72L38.59 20.86C38.85 21.11 39.19 21.26 39.56 21.26C39.92 21.26 40.26 21.11 40.52 20.86C40.78 20.6 40.92 20.25 40.92 19.89C40.92 19.53 40.78 19.18 40.52 18.93L34.1 12.51L34.1 3.52C34.1 3.16 33.96 2.81 33.7 2.56C33.44 2.3 33.1 2.16 32.73 2.16L30.01 2.16C29.64 2.16 29.3 2.3 29.04 2.56C28.79 2.81 28.64 3.16 28.64 3.52L28.64 7.05L22.39 0.79Z" fill="#FF0400" fill-opacity="1.000000" fill-rule="nonzero"/>
	<path id="Vector" d="M20.46 5.69L36.83 22.05L36.83 33.53C36.83 34.62 36.4 35.66 35.63 36.43C34.86 37.19 33.82 37.62 32.73 37.62L8.18 37.62C7.1 37.62 6.06 37.19 5.29 36.43C4.52 35.66 4.09 34.62 4.09 33.53L4.09 22.05L20.46 5.69Z" fill="#FF0400" fill-opacity="1.000000" fill-rule="nonzero"/>
</svg>
