<svg width="32.000000" height="32.000000" viewBox="0 0 32 32" fill="none" xmlns="http://www.w3.org/2000/svg" xmlns:xlink="http://www.w3.org/1999/xlink">
	<desc>
			Created with Pixso.
	</desc>
	<defs/>
	<path id="Vector" d="M7 0C7.26 0 7.51 0.1 7.7 0.29C7.89 0.48 8 0.73 8 1L8 2L24 2L24 1C24 0.73 24.1 0.48 24.29 0.29C24.48 0.1 24.73 0 25 0C25.26 0 25.51 0.1 25.7 0.29C25.89 0.48 26 0.73 26 1L26 2L28 2C29.06 2 30.07 2.42 30.82 3.17C31.57 3.92 32 4.93 32 6L32 28C32 29.06 31.57 30.07 30.82 30.82C30.07 31.57 29.06 32 28 32L4 32C2.93 32 1.92 31.57 1.17 30.82C0.42 30.07 0 29.06 0 28L0 6C0 4.93 0.42 3.92 1.17 3.17C1.92 2.42 2.93 2 4 2L6 2L6 1C6 0.73 6.1 0.48 6.29 0.29C6.48 0.1 6.73 0 7 0ZM2 8L2 28C2 28.53 2.21 29.03 2.58 29.41C2.96 29.78 3.46 30 4 30L28 30C28.53 30 29.03 29.78 29.41 29.41C29.78 29.03 30 28.53 30 28L30 8L2 8Z" fill="#D9D9D9" fill-opacity="1.000000" fill-rule="nonzero"/>
</svg>
