<svg width="25.375000" height="29.001587" viewBox="0 0 25.375 29.0016" fill="none" xmlns="http://www.w3.org/2000/svg" xmlns:xlink="http://www.w3.org/1999/xlink">
	<desc>
			Created with Pixso.
	</desc>
	<defs/>
	<path id="Vector" d="M12.68 29C13.64 29 14.57 28.61 15.25 27.93C15.93 27.26 16.31 26.33 16.31 25.37L9.06 25.37C9.06 26.33 9.44 27.26 10.12 27.93C10.8 28.61 11.72 29 12.68 29ZM14.49 1.99C14.51 1.74 14.48 1.48 14.4 1.24C14.33 1 14.2 0.78 14.03 0.59C13.86 0.4 13.65 0.25 13.42 0.15C13.19 0.05 12.94 0 12.68 0C12.43 0 12.18 0.05 11.95 0.15C11.72 0.25 11.51 0.4 11.34 0.59C11.17 0.78 11.04 1 10.96 1.24C10.88 1.48 10.85 1.74 10.88 1.99C8.83 2.4 6.99 3.52 5.67 5.14C4.34 6.75 3.62 8.78 3.62 10.87C3.62 12.86 2.71 21.75 0 23.56L25.37 23.56C22.65 21.75 21.75 12.86 21.75 10.87C21.75 6.49 18.63 2.82 14.49 1.99Z" fill="#D9D9D9" fill-opacity="1.000000" fill-rule="nonzero"/>
</svg>
